<?xml version="1.0" encoding="UTF-8"?>
<!DOCTYPE svg PUBLIC "-//W3C//DTD SVG 1.1//EN" "http://www.w3.org/Graphics/SVG/1.1/DTD/svg11.dtd">
<svg xmlns="http://www.w3.org/2000/svg" version="1.1" width="299px" height="168px" style="shape-rendering:geometricPrecision; text-rendering:geometricPrecision; image-rendering:optimizeQuality; fill-rule:evenodd; clip-rule:evenodd" xmlns:xlink="http://www.w3.org/1999/xlink">
<g><path style="opacity:1" fill="#f9da3f" d="M 168.5,18.5 C 184.135,20.1354 191.468,28.802 190.5,44.5C 188.502,46.7522 186.502,49.0855 184.5,51.5C 184.631,50.6236 184.298,49.9569 183.5,49.5C 179.528,52.098 178.528,55.598 180.5,60C 178.08,60.9149 176.747,60.0815 176.5,57.5C 178.389,54.0037 179.555,50.337 180,46.5C 176.965,45.8157 174.631,44.149 173,41.5C 173.149,44.8397 171.649,46.8397 168.5,47.5C 168.833,46.8333 169.167,46.1667 169.5,45.5C 171.115,42.5983 170.449,40.265 167.5,38.5C 154.344,37.5044 141.01,37.1711 127.5,37.5C 127.171,50.0113 127.505,62.3446 128.5,74.5C 129.167,74.5 129.5,74.1667 129.5,73.5C 142.833,73.5 156.167,73.5 169.5,73.5C 167.562,75.1628 165.228,75.8294 162.5,75.5C 152.828,75.3335 143.161,75.5002 133.5,76C 130.823,76.2494 128.49,77.2494 126.5,79C 124.527,79.4955 122.527,79.6621 120.5,79.5C 120.5,82.8333 120.5,86.1667 120.5,89.5C 138.47,91.4869 156.803,92.1535 175.5,91.5C 175.5,91.8333 175.5,92.1667 175.5,92.5C 175.167,92.5 174.833,92.5 174.5,92.5C 173.5,92.5 172.5,92.5 171.5,92.5C 150.833,92.5 130.167,92.5 109.5,92.5C 109.5,68.1667 109.5,43.8333 109.5,19.5C 129.34,19.8304 149.007,19.4971 168.5,18.5 Z"/></g>
<g><path style="opacity:1" fill="#f8d941" d="M 255.5,19.5 C 257.25,20.4732 258.75,21.8065 260,23.5C 260.561,22.9781 261.228,22.6448 262,22.5C 263.5,23.5 265,24.5 266.5,25.5C 263.612,27.111 260.612,28.4443 257.5,29.5C 253.282,29.2792 252.615,27.7792 255.5,25C 239.833,24.6667 224.167,24.3333 208.5,24C 207.975,23.3076 207.308,22.8076 206.5,22.5C 205.294,24.4841 205.294,26.4841 206.5,28.5C 204.955,29.4519 203.288,29.7852 201.5,29.5C 201.702,31.9892 201.202,34.3225 200,36.5C 199.333,35.8333 198.667,35.1667 198,34.5C 197.817,31.6353 197.317,28.9686 196.5,26.5C 196.5,24.1667 196.5,21.8333 196.5,19.5C 216.167,18.1667 235.833,18.1667 255.5,19.5 Z"/></g>
<g><path style="opacity:1" fill="#fbdb3d" d="M 257.5,29.5 C 258.663,31.9822 260.663,33.3155 263.5,33.5C 263.36,35.1238 264.027,36.2904 265.5,37C 263.914,39.8268 262.248,39.9935 260.5,37.5C 258.657,38.9387 256.99,38.772 255.5,37C 241.994,36.173 228.66,36.3396 215.5,37.5C 214.503,55.6591 214.17,73.9924 214.5,92.5C 208.5,92.5 202.5,92.5 196.5,92.5C 196.5,70.5 196.5,48.5 196.5,26.5C 197.317,28.9686 197.817,31.6353 198,34.5C 198.667,35.1667 199.333,35.8333 200,36.5C 201.202,34.3225 201.702,31.9892 201.5,29.5C 203.288,29.7852 204.955,29.4519 206.5,28.5C 205.294,26.4841 205.294,24.4841 206.5,22.5C 207.308,22.8076 207.975,23.3076 208.5,24C 224.167,24.3333 239.833,24.6667 255.5,25C 252.615,27.7792 253.282,29.2792 257.5,29.5 Z M 204.5,32.5 C 205.586,32.62 206.253,33.2867 206.5,34.5C 206.515,52.1384 206.182,69.4717 205.5,86.5C 204.5,68.5123 204.167,50.5123 204.5,32.5 Z"/></g>
<g><path style="opacity:1" fill="#f8d942" d="M 255.5,19.5 C 271.463,21.6339 279.463,30.8005 279.5,47C 279.939,52.7464 278.606,57.913 275.5,62.5C 273.094,65.9695 269.927,68.6362 266,70.5C 265.481,72.4894 266.314,73.4894 268.5,73.5C 269.5,74.8333 270.5,76.1667 271.5,77.5C 268.813,75.8312 266.147,74.1645 263.5,72.5C 263.736,70.0268 265.069,68.3601 267.5,67.5C 265.799,67.8104 264.132,67.3104 262.5,66C 261.663,64.9887 261.33,63.8221 261.5,62.5C 257.966,62.0756 254.466,61.4089 251,60.5C 244.678,61.1877 237.511,61.1877 229.5,60.5C 228.522,60.9767 227.689,61.6433 227,62.5C 226.502,65.8168 226.335,69.1501 226.5,72.5C 232.176,72.3339 237.843,72.5006 243.5,73C 244.252,73.6708 244.586,74.5041 244.5,75.5C 243.711,75.2172 243.044,74.7172 242.5,74C 236.509,73.5005 230.509,73.3338 224.5,73.5C 224.818,68.9677 224.485,64.6344 223.5,60.5C 223.5,59.5 223.5,58.5 223.5,57.5C 234.218,57.7871 244.885,57.4538 255.5,56.5C 256.873,56.6567 258.207,56.49 259.5,56C 260.147,54.3905 260.98,52.8905 262,51.5C 261.965,47.4786 261.465,43.4786 260.5,39.5C 259.5,39.5 258.5,39.5 257.5,39.5C 256.391,39.4431 255.391,39.1098 254.5,38.5C 241.677,37.5045 228.677,37.1712 215.5,37.5C 228.66,36.3396 241.994,36.173 255.5,37C 256.99,38.772 258.657,38.9387 260.5,37.5C 262.248,39.9935 263.914,39.8268 265.5,37C 264.027,36.2904 263.36,35.1238 263.5,33.5C 260.663,33.3155 258.663,31.9822 257.5,29.5C 260.612,28.4443 263.612,27.111 266.5,25.5C 265,24.5 263.5,23.5 262,22.5C 261.228,22.6448 260.561,22.9781 260,23.5C 258.75,21.8065 257.25,20.4732 255.5,19.5 Z"/></g>
<g><path style="opacity:1" fill="#f7d842" d="M 78.5,20.5 C 66.8333,20.5 55.1667,20.5 43.5,20.5C 43.5,22.1667 43.5,23.8333 43.5,25.5C 42.0222,25.762 40.6888,25.4287 39.5,24.5C 40.9989,23.0962 40.6656,22.4296 38.5,22.5C 36.0583,23.0361 33.7249,23.8694 31.5,25C 34.0278,25.9978 34.0278,26.8311 31.5,27.5C 29.8453,26.772 28.1786,26.6053 26.5,27C 27.91,27.3678 28.91,28.2011 29.5,29.5C 24.0788,32.6385 23.2455,36.6385 27,41.5C 27.8333,39.8333 28.6667,38.1667 29.5,36.5C 30.9554,35.2555 32.2887,35.4222 33.5,37C 31.0183,38.9548 30.8517,41.1215 33,43.5C 34.669,41.8309 35.5023,39.8309 35.5,37.5C 39.3354,36.9965 39.3354,35.9965 35.5,34.5C 36.6888,33.5713 38.0222,33.238 39.5,33.5C 39.5,32.5 39.5,31.5 39.5,30.5C 86.1667,29.8333 86.1667,29.1667 39.5,28.5C 39.9175,27.7784 40.5842,27.2784 41.5,27C 52.0339,26.7992 62.5339,26.2992 73,25.5C 76.4995,26.5882 79.8328,27.9215 83,29.5C 83.6667,28.5 83.6667,27.5 83,26.5C 81.7323,24.5189 80.5656,22.5189 79.5,20.5C 90.4925,22.8274 98.1592,29.1607 102.5,39.5C 100.243,39.0383 98.2433,38.0383 96.5,36.5C 99.1795,33.853 98.5129,32.5196 94.5,32.5C 93.0007,26.7534 89.6674,25.42 84.5,28.5C 84.7093,29.086 85.0426,29.586 85.5,30C 84.2068,30.49 82.8734,30.6567 81.5,30.5C 81.3739,32.1998 80.7073,33.6998 79.5,35C 79.9504,36.2853 80.6171,37.452 81.5,38.5C 80.8728,39.4168 80.5394,40.4168 80.5,41.5C 73.9473,38.0947 66.9473,36.7614 59.5,37.5C 52.4933,36.8992 45.8266,38.0659 39.5,41C 31.2384,47.9382 29.2384,56.4382 33.5,66.5C 33.8333,67.8333 34.1667,69.1667 34.5,70.5C 34.1961,71.1499 33.8627,71.8165 33.5,72.5C 27.1203,72.8785 24.4536,76.2119 25.5,82.5C 24.078,81.075 22.4113,80.075 20.5,79.5C 9.10889,64.2293 8.60889,48.5626 19,32.5C 29.8446,21.1055 43.178,16.4388 59,18.5C 65.7456,18.2796 72.2456,18.9463 78.5,20.5 Z M 39.5,28.5 C 86.1667,29.1667 86.1667,29.8333 39.5,30.5C 39.5,29.8333 39.5,29.1667 39.5,28.5 Z"/></g>
<g><path style="opacity:1" fill="#fbdc3b" d="M 78.5,20.5 C 78.8333,20.5 79.1667,20.5 79.5,20.5C 80.5656,22.5189 81.7323,24.5189 83,26.5C 83.6667,27.5 83.6667,28.5 83,29.5C 79.8328,27.9215 76.4995,26.5882 73,25.5C 62.5339,26.2992 52.0339,26.7992 41.5,27C 40.5842,27.2784 39.9175,27.7784 39.5,28.5C 39.5,29.1667 39.5,29.8333 39.5,30.5C 39.5,31.5 39.5,32.5 39.5,33.5C 38.0222,33.238 36.6888,33.5713 35.5,34.5C 39.3354,35.9965 39.3354,36.9965 35.5,37.5C 35.5023,39.8309 34.669,41.8309 33,43.5C 30.8517,41.1215 31.0183,38.9548 33.5,37C 32.2887,35.4222 30.9554,35.2555 29.5,36.5C 28.6667,38.1667 27.8333,39.8333 27,41.5C 23.2455,36.6385 24.0788,32.6385 29.5,29.5C 28.91,28.2011 27.91,27.3678 26.5,27C 28.1786,26.6053 29.8453,26.772 31.5,27.5C 34.0278,26.8311 34.0278,25.9978 31.5,25C 33.7249,23.8694 36.0583,23.0361 38.5,22.5C 40.6656,22.4296 40.9989,23.0962 39.5,24.5C 40.6888,25.4287 42.0222,25.762 43.5,25.5C 43.5,23.8333 43.5,22.1667 43.5,20.5C 55.1667,20.5 66.8333,20.5 78.5,20.5 Z"/></g>
<g><path style="opacity:1" fill="#423c2a" d="M 254.5,38.5 C 255.391,39.1098 256.391,39.4431 257.5,39.5C 260.986,44.0272 261.32,48.6939 258.5,53.5C 258.5,52.8333 258.5,52.1667 258.5,51.5C 258.665,48.4816 258.498,45.4816 258,42.5C 257.5,42 257,41.5 256.5,41C 243.146,40.7376 229.813,40.2376 216.5,39.5C 216.5,41.1667 216.5,42.8333 216.5,44.5C 216.5,45.1667 216.167,45.5 215.5,45.5C 215.5,43.1667 215.5,40.8333 215.5,38.5C 228.5,38.5 241.5,38.5 254.5,38.5 Z"/></g>
<g><path style="opacity:1" fill="#3d3b39" d="M 128.5,39.5 C 141.171,39.3334 153.838,39.5001 166.5,40C 167.973,40.7096 168.64,41.8762 168.5,43.5C 155.323,43.1712 142.323,43.5045 129.5,44.5C 129.5,54.1667 129.5,63.8333 129.5,73.5C 129.5,74.1667 129.167,74.5 128.5,74.5C 128.5,62.8333 128.5,51.1667 128.5,39.5 Z"/></g>
<g><path style="opacity:1" fill="#3b3a3c" d="M 82.5,47.5 C 71.012,44.1357 59.3453,43.6357 47.5,46C 38.2236,50.6221 34.557,58.1221 36.5,68.5C 35.5,68.1667 34.8333,67.5 34.5,66.5C 33.8752,60.5444 35.3752,55.211 39,50.5C 39.4935,48.8659 39.6602,47.1992 39.5,45.5C 41.604,45.7989 43.604,45.4656 45.5,44.5C 42.8228,42.7362 43.1562,41.5696 46.5,41C 57.6595,39.862 68.6595,40.5286 79.5,43C 81.1412,44.129 82.1412,45.629 82.5,47.5 Z"/></g>
<g><path style="opacity:1" fill="#f9d940" d="M 102.5,39.5 C 103.738,41.2143 104.405,43.2143 104.5,45.5C 108.139,70.2535 98.1386,86.2535 74.5,93.5C 74.1667,93.5 73.8333,93.5 73.5,93.5C 63.8276,93.6665 54.1609,93.4998 44.5,93C 42.7525,92.6481 41.0858,92.1481 39.5,91.5C 38.5475,89.39 36.8808,88.2233 34.5,88C 34.8333,87.6667 35.1667,87.3333 35.5,87C 31.3903,86.9204 28.0569,85.4204 25.5,82.5C 24.4536,76.2119 27.1203,72.8785 33.5,72.5C 33.8627,71.8165 34.1961,71.1499 34.5,70.5C 36.7645,70.4406 37.0978,71.2739 35.5,73C 36.6886,76.0604 38.3553,76.2271 40.5,73.5C 46.8054,74.1269 53.1387,74.4603 59.5,74.5C 65.5415,74.4955 71.2082,73.8288 76.5,72.5C 84.9241,67.5348 87.9241,60.2015 85.5,50.5C 84.6062,47.0434 82.9395,44.0434 80.5,41.5C 80.5394,40.4168 80.8728,39.4168 81.5,38.5C 80.6171,37.452 79.9504,36.2853 79.5,35C 80.7073,33.6998 81.3739,32.1998 81.5,30.5C 82.8734,30.6567 84.2068,30.49 85.5,30C 85.0426,29.586 84.7093,29.086 84.5,28.5C 89.6674,25.42 93.0007,26.7534 94.5,32.5C 98.5129,32.5196 99.1795,33.853 96.5,36.5C 98.2433,38.0383 100.243,39.0383 102.5,39.5 Z"/></g>
<g><path style="opacity:1" fill="#3d3b3f" d="M 258.5,51.5 C 257.264,47.7789 254.597,45.6122 250.5,45C 239.172,44.5001 227.838,44.3335 216.5,44.5C 216.5,42.8333 216.5,41.1667 216.5,39.5C 229.813,40.2376 243.146,40.7376 256.5,41C 257,41.5 257.5,42 258,42.5C 258.498,45.4816 258.665,48.4816 258.5,51.5 Z"/></g>
<g><path style="opacity:1" fill="#4b4637" d="M 80.5,41.5 C 82.9395,44.0434 84.6062,47.0434 85.5,50.5C 84.1667,49.8333 83.1667,48.8333 82.5,47.5C 82.1412,45.629 81.1412,44.129 79.5,43C 68.6595,40.5286 57.6595,39.862 46.5,41C 43.1562,41.5696 42.8228,42.7362 45.5,44.5C 43.604,45.4656 41.604,45.7989 39.5,45.5C 39.6602,47.1992 39.4935,48.8659 39,50.5C 35.3752,55.211 33.8752,60.5444 34.5,66.5C 34.1667,66.5 33.8333,66.5 33.5,66.5C 29.2384,56.4382 31.2384,47.9382 39.5,41C 45.8266,38.0659 52.4933,36.8992 59.5,37.5C 66.9473,36.7614 73.9473,38.0947 80.5,41.5 Z"/></g>
<g><path style="opacity:0.851" fill="#352f22" d="M 128.5,39.5 C 141.323,38.5045 154.323,38.1712 167.5,38.5C 170.449,40.265 171.115,42.5983 169.5,45.5C 156.203,44.5551 142.87,44.2218 129.5,44.5C 142.323,43.5045 155.323,43.1712 168.5,43.5C 168.64,41.8762 167.973,40.7096 166.5,40C 153.838,39.5001 141.171,39.3334 128.5,39.5 Z"/></g>
<g><path style="opacity:0.102" fill="#eace6d" d="M 117.5,32.5 C 117.56,31.9569 117.893,31.6236 118.5,31.5C 119.827,49.6622 119.827,67.6622 118.5,85.5C 118.83,67.6588 118.497,49.9921 117.5,32.5 Z"/></g>
<g><path style="opacity:1" fill="#e3ce5a" d="M 257.5,39.5 C 258.5,39.5 259.5,39.5 260.5,39.5C 261.465,43.4786 261.965,47.4786 262,51.5C 260.98,52.8905 260.147,54.3905 259.5,56C 258.207,56.49 256.873,56.6567 255.5,56.5C 256.694,55.7281 257.694,54.7281 258.5,53.5C 261.32,48.6939 260.986,44.0272 257.5,39.5 Z"/></g>
<g><path style="opacity:0.984" fill="#484020" d="M 190.5,44.5 C 189.627,48.8631 188.627,53.1965 187.5,57.5C 184.511,56.249 183.511,54.249 184.5,51.5C 186.502,49.0855 188.502,46.7522 190.5,44.5 Z"/></g>
<g><path style="opacity:1" fill="#f9da3d" d="M 184.5,51.5 C 183.511,54.249 184.511,56.249 187.5,57.5C 188.79,58.0577 189.623,59.0577 190,60.5C 191.83,64.4386 192.33,68.4386 191.5,72.5C 189.858,81.8182 184.525,88.1515 175.5,91.5C 156.803,92.1535 138.47,91.4869 120.5,89.5C 138.543,90.6918 156.543,90.6918 174.5,89.5C 173.96,88.2519 173.293,87.0852 172.5,86C 169.079,85.899 165.912,85.0657 163,83.5C 161.588,84.9227 160.421,84.756 159.5,83C 165.356,81.8729 171.356,81.0396 177.5,80.5C 176.726,79.2888 175.893,79.2888 175,80.5C 174.517,79.552 174.351,78.552 174.5,77.5C 171.668,78.7213 168.835,78.7213 166,77.5C 164.635,77.8443 163.468,78.5109 162.5,79.5C 161.374,78.1916 161.374,76.8583 162.5,75.5C 165.228,75.8294 167.562,75.1628 169.5,73.5C 169.833,72.8333 170.167,72.1667 170.5,71.5C 173.071,68.1796 173.071,64.6796 170.5,61C 159.505,60.5002 148.505,60.3335 137.5,60.5C 137.237,56.3998 137.57,52.3998 138.5,48.5C 148.232,48.794 158.232,48.4606 168.5,47.5C 171.649,46.8397 173.149,44.8397 173,41.5C 174.631,44.149 176.965,45.8157 180,46.5C 179.555,50.337 178.389,54.0037 176.5,57.5C 176.747,60.0815 178.08,60.9149 180.5,60C 178.528,55.598 179.528,52.098 183.5,49.5C 184.298,49.9569 184.631,50.6236 184.5,51.5 Z"/></g>
<g><path style="opacity:1" fill="#7b6f38" d="M 167.5,38.5 C 154.323,38.1712 141.323,38.5045 128.5,39.5C 128.5,51.1667 128.5,62.8333 128.5,74.5C 127.505,62.3446 127.171,50.0113 127.5,37.5C 141.01,37.1711 154.344,37.5044 167.5,38.5 Z"/></g>
<g><path style="opacity:1" fill="#edd554" d="M 138.5,48.5 C 137.57,52.3998 137.237,56.3998 137.5,60.5C 148.505,60.3335 159.505,60.5002 170.5,61C 173.071,64.6796 173.071,68.1796 170.5,71.5C 170.5,70.8333 170.5,70.1667 170.5,69.5C 171.338,69.1583 171.672,68.4916 171.5,67.5C 171.912,65.0274 170.912,63.6941 168.5,63.5C 158.013,62.5056 147.346,62.1722 136.5,62.5C 136.579,61.0695 136.246,59.7362 135.5,58.5C 135.77,54.7236 136.77,51.3902 138.5,48.5 Z"/></g>
<g><path style="opacity:1" fill="#fbdb3b" d="M 263.5,72.5 C 261.369,73.3138 259.036,73.8138 256.5,74C 255.381,78.2506 254.048,78.4173 252.5,74.5C 251.167,73.1667 249.833,73.1667 248.5,74.5C 251.144,75.741 251.977,77.741 251,80.5C 250.082,78.6243 248.582,77.6243 246.5,77.5C 245.5,77.1667 244.833,76.5 244.5,75.5C 244.586,74.5041 244.252,73.6708 243.5,73C 237.843,72.5006 232.176,72.3339 226.5,72.5C 226.335,69.1501 226.502,65.8168 227,62.5C 227.689,61.6433 228.522,60.9767 229.5,60.5C 237.511,61.1877 244.678,61.1877 251,60.5C 254.466,61.4089 257.966,62.0756 261.5,62.5C 261.33,63.8221 261.663,64.9887 262.5,66C 264.132,67.3104 265.799,67.8104 267.5,67.5C 265.069,68.3601 263.736,70.0268 263.5,72.5 Z"/></g>
<g><path style="opacity:1" fill="#695d16" d="M 136.5,62.5 C 147.346,62.1722 158.013,62.5056 168.5,63.5C 158.5,63.5 148.5,63.5 138.5,63.5C 137.833,63.5 137.5,63.8333 137.5,64.5C 136.662,64.1583 136.328,63.4916 136.5,62.5 Z"/></g>
<g><path style="opacity:1" fill="#433f27" d="M 138.5,63.5 C 148.5,63.5 158.5,63.5 168.5,63.5C 170.912,63.6941 171.912,65.0274 171.5,67.5C 170.733,66.828 170.066,65.9947 169.5,65C 158.992,64.8303 148.659,64.3303 138.5,63.5 Z"/></g>
<g><path style="opacity:1" fill="#3c393c" d="M 138.5,63.5 C 148.659,64.3303 158.992,64.8303 169.5,65C 170.066,65.9947 170.733,66.828 171.5,67.5C 171.672,68.4916 171.338,69.1583 170.5,69.5C 159.538,68.568 148.538,68.2347 137.5,68.5C 137.5,67.1667 137.5,65.8333 137.5,64.5C 137.5,63.8333 137.833,63.5 138.5,63.5 Z"/></g>
<g><path style="opacity:0.667" fill="#c8b242" d="M 196.5,19.5 C 196.5,21.8333 196.5,24.1667 196.5,26.5C 196.5,48.5 196.5,70.5 196.5,92.5C 202.5,92.5 208.5,92.5 214.5,92.5C 214.17,73.9924 214.503,55.6591 215.5,37.5C 228.677,37.1712 241.677,37.5045 254.5,38.5C 241.5,38.5 228.5,38.5 215.5,38.5C 215.5,40.8333 215.5,43.1667 215.5,45.5C 215.659,61.5909 215.659,77.5909 215.5,93.5C 208.833,93.5 202.167,93.5 195.5,93.5C 195.169,68.661 195.502,43.9944 196.5,19.5 Z"/></g>
<g><path style="opacity:0.936" fill="#6a5712" d="M 223.5,60.5 C 224.485,64.6344 224.818,68.9677 224.5,73.5C 223.833,73.5 223.167,73.5 222.5,73.5C 222.294,69.1018 222.627,64.7685 223.5,60.5 Z"/></g>
<g><path style="opacity:1" fill="#413823" d="M 275.5,62.5 C 274.343,66.9757 272.01,70.6423 268.5,73.5C 266.314,73.4894 265.481,72.4894 266,70.5C 269.927,68.6362 273.094,65.9695 275.5,62.5 Z"/></g>
<g><path style="opacity:1" fill="#3d392c" d="M 104.5,45.5 C 106.568,48.763 107.568,52.4296 107.5,56.5C 107.5,59.8333 107.5,63.1667 107.5,66.5C 107.095,74.9748 103.761,81.9748 97.5,87.5C 90.1527,89.6086 82.486,91.6086 74.5,93.5C 98.1386,86.2535 108.139,70.2535 104.5,45.5 Z"/></g>
<g><path style="opacity:0.071" fill="#e2c649" d="M 33.5,66.5 C 33.8333,66.5 34.1667,66.5 34.5,66.5C 34.8333,67.5 35.5,68.1667 36.5,68.5C 38.4101,70.5617 40.7435,72.0617 43.5,73C 54.5463,73.7883 65.5463,73.6216 76.5,72.5C 71.2082,73.8288 65.5415,74.4955 59.5,74.5C 53.1387,74.4603 46.8054,74.1269 40.5,73.5C 38.3553,76.2271 36.6886,76.0604 35.5,73C 37.0978,71.2739 36.7645,70.4406 34.5,70.5C 34.1667,69.1667 33.8333,67.8333 33.5,66.5 Z"/></g>
<g><path style="opacity:1" fill="#fadb40" d="M 263.5,72.5 C 266.147,74.1645 268.813,75.8312 271.5,77.5C 273.833,81.8333 277.167,85.1667 281.5,87.5C 281.859,89.371 282.859,90.871 284.5,92C 276.173,92.4997 267.84,92.6664 259.5,92.5C 254.822,87.8207 250.489,82.8207 246.5,77.5C 248.582,77.6243 250.082,78.6243 251,80.5C 251.977,77.741 251.144,75.741 248.5,74.5C 249.833,73.1667 251.167,73.1667 252.5,74.5C 254.048,78.4173 255.381,78.2506 256.5,74C 259.036,73.8138 261.369,73.3138 263.5,72.5 Z"/></g>
<g><path style="opacity:1" fill="#fbdb3b" d="M 162.5,75.5 C 161.374,76.8583 161.374,78.1916 162.5,79.5C 163.468,78.5109 164.635,77.8443 166,77.5C 168.835,78.7213 171.668,78.7213 174.5,77.5C 174.351,78.552 174.517,79.552 175,80.5C 175.893,79.2888 176.726,79.2888 177.5,80.5C 171.356,81.0396 165.356,81.8729 159.5,83C 160.421,84.756 161.588,84.9227 163,83.5C 165.912,85.0657 169.079,85.899 172.5,86C 173.293,87.0852 173.96,88.2519 174.5,89.5C 156.543,90.6918 138.543,90.6918 120.5,89.5C 120.5,86.1667 120.5,82.8333 120.5,79.5C 122.527,79.6621 124.527,79.4955 126.5,79C 128.49,77.2494 130.823,76.2494 133.5,76C 143.161,75.5002 152.828,75.3335 162.5,75.5 Z"/></g>
<g><path style="opacity:1" fill="#3f3c3b" d="M 222.5,73.5 C 223.167,73.5 223.833,73.5 224.5,73.5C 230.509,73.3338 236.509,73.5005 242.5,74C 243.044,74.7172 243.711,75.2172 244.5,75.5C 244.833,76.5 245.5,77.1667 246.5,77.5C 250.489,82.8207 254.822,87.8207 259.5,92.5C 267.984,93.493 276.651,93.8264 285.5,93.5C 285.297,95.0443 284.63,96.3777 283.5,97.5C 274.853,98.6652 266.186,98.8319 257.5,98C 252.167,92 246.833,86 241.5,80C 235.175,79.5005 228.842,79.3338 222.5,79.5C 222.5,77.5 222.5,75.5 222.5,73.5 Z"/></g>
<g><path style="opacity:0.514" fill="#c9b65f" d="M 168.5,18.5 C 149.007,19.4971 129.34,19.8304 109.5,19.5C 109.5,43.8333 109.5,68.1667 109.5,92.5C 130.167,92.5 150.833,92.5 171.5,92.5C 151.007,93.4972 130.34,93.8305 109.5,93.5C 108.833,84.5 108.167,75.5 107.5,66.5C 107.5,63.1667 107.5,59.8333 107.5,56.5C 108.495,44.011 108.829,31.3443 108.5,18.5C 128.5,18.5 148.5,18.5 168.5,18.5 Z"/></g>
<g><path style="opacity:0.878" fill="#d7bc5a" d="M 271.5,77.5 C 275.167,80.5 278.5,83.8333 281.5,87.5C 277.167,85.1667 273.833,81.8333 271.5,77.5 Z"/></g>
<g><path style="opacity:1" fill="#d8c350" d="M 20.5,79.5 C 22.4113,80.075 24.078,81.075 25.5,82.5C 28.0569,85.4204 31.3903,86.9204 35.5,87C 35.1667,87.3333 34.8333,87.6667 34.5,88C 36.8808,88.2233 38.5475,89.39 39.5,91.5C 35.5195,89.8702 31.5195,88.2035 27.5,86.5C 24.8333,84.5 22.5,82.1667 20.5,79.5 Z"/></g>
<g><path style="opacity:1" fill="#4f4423" d="M 191.5,72.5 C 192.156,78.1742 190.823,83.1742 187.5,87.5C 187.631,86.7611 187.464,86.0944 187,85.5C 184.097,89.5276 180.264,91.861 175.5,92.5C 175.5,92.1667 175.5,91.8333 175.5,91.5C 184.525,88.1515 189.858,81.8182 191.5,72.5 Z"/></g>
<g><path style="opacity:1" fill="#c7b54d" d="M 281.5,87.5 C 283.129,88.6253 284.629,89.9586 286,91.5C 286.692,92.4368 286.525,93.1034 285.5,93.5C 276.651,93.8264 267.984,93.493 259.5,92.5C 267.84,92.6664 276.173,92.4997 284.5,92C 282.859,90.871 281.859,89.371 281.5,87.5 Z"/></g>
<g><path style="opacity:1" fill="#39341d" d="M 27.5,86.5 C 31.5195,88.2035 35.5195,89.8702 39.5,91.5C 41.0858,92.1481 42.7525,92.6481 44.5,93C 54.1609,93.4998 63.8276,93.6665 73.5,93.5C 62.8333,94.1667 52.1667,94.8333 41.5,95.5C 35.8507,94.0098 31.184,91.0098 27.5,86.5 Z"/></g>
<g><path style="opacity:1" fill="#3c3417" d="M 171.5,92.5 C 172.5,92.5 173.5,92.5 174.5,92.5C 174.082,93.2216 173.416,93.7216 172.5,94C 151.503,94.5 130.503,94.6666 109.5,94.5C 109.5,94.1667 109.5,93.8333 109.5,93.5C 130.34,93.8305 151.007,93.4972 171.5,92.5 Z"/></g>
<g><path style="opacity:1" fill="#393a3e" d="M 187.5,87.5 C 184.346,93.4282 179.346,96.9282 172.5,98C 151.836,98.5 131.169,98.6666 110.5,98.5C 110.567,97.0413 110.234,95.7079 109.5,94.5C 130.503,94.6666 151.503,94.5 172.5,94C 173.416,93.7216 174.082,93.2216 174.5,92.5C 174.833,92.5 175.167,92.5 175.5,92.5C 180.264,91.861 184.097,89.5276 187,85.5C 187.464,86.0944 187.631,86.7611 187.5,87.5 Z"/></g>
<g><path style="opacity:0.757" fill="#3c3938" d="M 195.5,93.5 C 202.167,93.5 208.833,93.5 215.5,93.5C 215.579,94.9305 215.246,96.2638 214.5,97.5C 208.202,98.4963 201.868,98.8297 195.5,98.5C 195.5,96.8333 195.5,95.1667 195.5,93.5 Z"/></g>
<g><path style="opacity:0.565" fill="#38383b" d="M 97.5,87.5 C 92.4117,93.0486 86.0784,96.5486 78.5,98C 68.5,98.6667 58.5,98.6667 48.5,98C 45.8958,97.6097 43.5625,96.7763 41.5,95.5C 52.1667,94.8333 62.8333,94.1667 73.5,93.5C 73.8333,93.5 74.1667,93.5 74.5,93.5C 82.486,91.6086 90.1527,89.6086 97.5,87.5 Z"/></g>
<g><path style="opacity:0.478" fill="#cbc1d4" d="M 227.5,113.5 C 226.244,113.539 225.244,113.039 224.5,112C 216.784,111.801 209.118,111.301 201.5,110.5C 197.454,111.606 195.787,114.273 196.5,118.5C 196.167,118.5 195.833,118.5 195.5,118.5C 195.5,115.167 195.5,111.833 195.5,108.5C 204.839,108.334 214.173,108.5 223.5,109C 225.644,109.792 226.977,111.292 227.5,113.5 Z"/></g>
<g><path style="opacity:0.137" fill="#c8c6d1" d="M 191.5,122.5 C 191.167,122.5 190.833,122.5 190.5,122.5C 184.689,111.115 175.689,107.781 163.5,112.5C 163.511,110.983 164.177,109.816 165.5,109C 178.619,105.39 187.286,109.89 191.5,122.5 Z"/></g>
<g><path style="opacity:0.28" fill="#eee5ed" d="M 150.5,115.5 C 149.118,114.199 147.452,113.366 145.5,113C 138.182,112.179 131.015,111.679 124,111.5C 119.425,111.582 117.592,113.915 118.5,118.5C 118.5,118.833 118.5,119.167 118.5,119.5C 117.883,119.389 117.383,119.056 117,118.5C 115.876,115.558 115.542,112.558 116,109.5C 117.734,108.751 119.567,108.251 121.5,108C 128.5,107.333 135.5,107.333 142.5,108C 146.977,108.646 149.644,111.146 150.5,115.5 Z"/></g>
<g><path style="opacity:0.42" fill="#d9d9de" d="M 271.5,133.5 C 271.167,133.5 270.833,133.5 270.5,133.5C 270.011,130.555 268.511,128.222 266,126.5C 265.501,121.511 265.334,116.511 265.5,111.5C 262.785,109.924 260.452,110.258 258.5,112.5C 258.167,112.5 257.833,112.5 257.5,112.5C 256.316,111.312 256.316,110.145 257.5,109C 261.091,108.211 264.591,108.378 268,109.5C 269.258,117.519 270.424,125.519 271.5,133.5 Z"/></g>
<g><path style="opacity:0.72" fill="#111013" d="M 31.5,110.5 C 36.2362,112.484 36.7362,115.484 33,119.5C 31.4708,118.271 30.3041,116.771 29.5,115C 30.5822,113.67 31.2488,112.17 31.5,110.5 Z M 32.5,112.5 C 33.5983,113.601 33.765,114.934 33,116.5C 31.4894,115.436 31.3228,114.103 32.5,112.5 Z"/></g>
<g><path style="opacity:1" fill="#181719" d="M 37.5,110.5 C 38.8221,110.33 39.9887,110.663 41,111.5C 41.2868,113.891 41.7868,116.224 42.5,118.5C 40.6934,119.799 39.0268,119.632 37.5,118C 38.5784,117.326 39.2451,116.326 39.5,115C 38.9265,113.393 38.2598,111.893 37.5,110.5 Z"/></g>
<g><path style="opacity:0.506" fill="#1e1c20" d="M 51.5,112.5 C 53.5,112.5 55.5,112.5 57.5,112.5C 57.6633,114.857 57.4966,117.19 57,119.5C 55.3333,119.167 53.6667,118.833 52,118.5C 51.5045,116.527 51.3379,114.527 51.5,112.5 Z"/></g>
<g><path style="opacity:0.198" fill="#969599" d="M 163.5,112.5 C 162.998,114.085 161.998,114.585 160.5,114C 161.244,112.961 162.244,112.461 163.5,112.5 Z"/></g>
<g><path style="opacity:0.306" fill="#282629" d="M 45.5,111.5 C 46.209,110.596 47.209,110.263 48.5,110.5C 48.2739,113.249 48.6072,115.916 49.5,118.5C 48.1667,119.833 46.8333,119.833 45.5,118.5C 46.1967,115.868 46.1967,113.535 45.5,111.5 Z"/></g>
<g><path style="opacity:0.257" fill="#a1a0a5" d="M 257.5,112.5 C 257.833,112.5 258.167,112.5 258.5,112.5C 258.5,117.5 258.5,122.5 258.5,127.5C 256.5,127.5 254.5,127.5 252.5,127.5C 252.5,126.833 252.833,126.5 253.5,126.5C 254.5,126.5 255.5,126.5 256.5,126.5C 256.181,121.637 256.514,116.97 257.5,112.5 Z"/></g>
<g><path style="opacity:0.61" fill="#2b2a30" d="M 74.5,112.5 C 79.2411,112.161 80.5744,114.161 78.5,118.5C 76.9579,119.747 75.4579,119.747 74,118.5C 73.8195,116.512 73.9862,114.512 74.5,112.5 Z"/></g>
<g><path style="opacity:0.776" fill="#1a191e" d="M 69.5,110.5 C 72.1125,111.095 72.1125,111.929 69.5,113C 70.2401,114.785 70.9067,116.618 71.5,118.5C 69.6934,119.799 68.0268,119.632 66.5,118C 69.0578,116.62 69.0578,115.12 66.5,113.5C 67.7701,112.712 68.7701,111.712 69.5,110.5 Z"/></g>
<g><path style="opacity:0.992" fill="#0f0d12" d="M 59.5,112.5 C 64.0685,112.083 65.5685,114.083 64,118.5C 62.324,119.061 60.9906,120.061 60,121.5C 59.502,118.518 59.3354,115.518 59.5,112.5 Z M 60.5,114.5 C 63.2933,114.74 63.7933,115.74 62,117.5C 60.9614,116.756 60.4614,115.756 60.5,114.5 Z"/></g>
<g><path style="opacity:0.835" fill="#28272b" d="M 84.5,110.5 C 85.7647,111.514 86.4313,113.014 86.5,115C 86.3333,116.5 86.1667,118 86,119.5C 84.9916,119.018 83.825,118.852 82.5,119C 81.4258,118.261 80.7591,117.261 80.5,116C 81.5171,113.85 82.8504,112.017 84.5,110.5 Z M 82.5,114.5 C 84.4646,114.948 84.7979,115.948 83.5,117.5C 82.6143,116.675 82.281,115.675 82.5,114.5 Z"/></g>
<g><path style="opacity:0.133" fill="#242328" d="M 89.5,112.5 C 90.8333,112.5 92.1667,112.5 93.5,112.5C 93.6633,114.857 93.4966,117.19 93,119.5C 91.7318,119.384 90.3985,119.051 89,118.5C 88.5099,116.455 88.6765,114.455 89.5,112.5 Z"/></g>
<g><path style="opacity:0.18" fill="#58555b" d="M 155.5,123.5 C 155.264,120.774 156.097,118.441 158,116.5C 157.738,119.026 156.905,121.36 155.5,123.5 Z"/></g>
<g><path style="opacity:1" fill="#4f4e4f" d="M 118.5,118.5 C 126.528,118.169 134.528,118.502 142.5,119.5C 143.932,121.297 143.599,122.63 141.5,123.5C 134.679,122.671 127.679,122.171 120.5,122C 119.619,121.292 118.953,120.458 118.5,119.5C 118.5,119.167 118.5,118.833 118.5,118.5 Z"/></g>
<g><path style="opacity:1" fill="#46454a" d="M 195.5,118.5 C 195.833,118.5 196.167,118.5 196.5,118.5C 204.507,118.334 212.507,118.5 220.5,119C 221.337,120.011 221.67,121.178 221.5,122.5C 214.734,121.191 208.068,121.191 201.5,122.5C 198.112,123.031 196.112,121.697 195.5,118.5 Z"/></g>
<g><path style="opacity:0.337" fill="#b6b5ba" d="M 227.5,113.5 C 230.075,115.845 231.075,118.845 230.5,122.5C 230.167,122.5 229.833,122.5 229.5,122.5C 229.595,119.308 228.929,116.308 227.5,113.5 Z"/></g>
<g><path style="opacity:1" fill="#3c3c3f" d="M 182.5,124.5 C 176.634,120.263 171.467,120.93 167,126.5C 166.503,128.81 166.337,131.143 166.5,133.5C 166.167,133.5 165.833,133.5 165.5,133.5C 161.261,121.556 165.595,116.723 178.5,119C 180.928,120.018 182.262,121.852 182.5,124.5 Z"/></g>
<g><path style="opacity:0.38" fill="#cfccd5" d="M 253.5,126.5 C 252.833,126.5 252.5,126.833 252.5,127.5C 249.482,127.665 246.482,127.498 243.5,127C 243,126.5 242.5,126 242,125.5C 241.501,120.511 241.334,115.511 241.5,110.5C 239.167,110.5 236.833,110.5 234.5,110.5C 234.5,115.5 234.5,120.5 234.5,125.5C 234.167,125.5 233.833,125.5 233.5,125.5C 233.334,120.156 233.501,114.823 234,109.5C 236.719,108.556 239.552,108.223 242.5,108.5C 242.334,112.846 242.501,117.179 243,121.5C 244.046,123.09 245.213,124.59 246.5,126C 249.028,125.895 251.362,126.062 253.5,126.5 Z"/></g>
<g><path style="opacity:0.18" fill="#777478" d="M 123.5,124.5 C 129.31,123.51 135.31,123.177 141.5,123.5C 135.69,124.49 129.69,124.823 123.5,124.5 Z"/></g>
<g><path style="opacity:0.137" fill="#6d6c72" d="M 201.5,122.5 C 208.068,121.191 214.734,121.191 221.5,122.5C 221.389,123.117 221.056,123.617 220.5,124C 214.175,124.5 207.842,124.666 201.5,124.5C 207.319,123.672 213.319,123.172 219.5,123C 213.509,122.501 207.509,122.334 201.5,122.5 Z"/></g>
<g><path style="opacity:0.439" fill="#131315" d="M 60.5,124.5 C 62.337,124.639 62.6704,125.306 61.5,126.5C 60.7025,126.043 60.3691,125.376 60.5,124.5 Z"/></g>
<g><path style="opacity:0.439" fill="#282828" d="M 82.5,124.5 C 84.337,124.639 84.6704,125.306 83.5,126.5C 82.7025,126.043 82.3691,125.376 82.5,124.5 Z"/></g>
<g><path style="opacity:0.18" fill="#65656b" d="M 199.5,125.5 C 199.842,124.662 200.508,124.328 201.5,124.5C 201.158,125.338 200.492,125.672 199.5,125.5 Z"/></g>
<g><path style="opacity:0.239" fill="#636167" d="M 199.5,125.5 C 198.093,127.308 196.926,129.308 196,131.5C 195.381,128.399 196.548,126.399 199.5,125.5 Z"/></g>
<g><path style="opacity:0.855" fill="#111013" d="M 37.5,127.5 C 39.7505,127.181 41.7505,127.681 43.5,129C 42.2845,131.096 41.4512,130.929 41,128.5C 38.1428,135.462 36.9762,135.129 37.5,127.5 Z"/></g>
<g><path style="opacity:0.914" fill="#110d12" d="M 88.5,127.5 C 90.1667,127.5 91.8333,127.5 93.5,127.5C 93.5875,130.598 93.0875,130.932 92,128.5C 90.2602,129.716 89.2602,131.382 89,133.5C 88.5045,131.527 88.3379,129.527 88.5,127.5 Z"/></g>
<g><path style="opacity:1" fill="#141316" d="M 96.5,128.5 C 100.833,126.824 102.5,128.491 101.5,133.5C 99.5,133.5 97.5,133.5 95.5,133.5C 95.5,132.167 95.5,130.833 95.5,129.5C 98.517,129.444 98.8503,129.11 96.5,128.5 Z"/></g>
<g><path style="opacity:0.843" fill="#1b1a1e" d="M 30.5,124.5 C 34.2403,123.741 35.907,125.241 35.5,129C 35.5699,132.992 33.5699,134.492 29.5,133.5C 29.2641,130.391 29.5975,127.391 30.5,124.5 Z M 31.5,126.5 C 33.337,126.639 33.6704,127.306 32.5,128.5C 31.7025,128.043 31.3691,127.376 31.5,126.5 Z"/></g>
<g><path style="opacity:0.376" fill="#19171a" d="M 52.5,127.5 C 54.288,127.215 55.9547,127.548 57.5,128.5C 57.277,129.967 56.9437,131.467 56.5,133C 54.597,133.774 52.9304,133.44 51.5,132C 52.5,131.667 53.5,131.333 54.5,131C 52.0614,130.467 51.3948,129.3 52.5,127.5 Z"/></g>
<g><path style="opacity:0.424" fill="#262529" d="M 74.5,127.5 C 78.9083,127.062 80.5749,129.062 79.5,133.5C 74.0738,134.416 72.4071,132.416 74.5,127.5 Z"/></g>
<g><path style="opacity:0.586" fill="#232324" d="M 81.5,128.5 C 82.209,127.596 83.209,127.263 84.5,127.5C 84.178,129.722 84.8446,131.556 86.5,133C 84.7412,133.798 83.0745,133.631 81.5,132.5C 82.7053,131.005 82.7053,129.672 81.5,128.5 Z"/></g>
<g><path style="opacity:1" fill="#3e3e41" d="M 150.5,115.5 C 153.198,117.572 154.865,120.238 155.5,123.5C 155.44,128.439 156.274,133.105 158,137.5C 155.685,134.223 154.351,130.556 154,126.5C 151.515,131.251 147.681,133.918 142.5,134.5C 140.666,133.506 138.999,133.506 137.5,134.5C 134.865,133.271 132.199,133.271 129.5,134.5C 130.025,135.192 130.692,135.692 131.5,136C 129.5,136.667 127.5,136.667 125.5,136C 124.139,133.416 124.805,131.416 127.5,130C 134.274,129.922 140.941,129.255 147.5,128C 150.938,124.417 151.938,120.25 150.5,115.5 Z"/></g>
<g><path style="opacity:0.99" fill="#3e3c42" d="M 229.5,122.5 C 229.833,122.5 230.167,122.5 230.5,122.5C 230.559,126.548 228.892,129.715 225.5,132C 218.885,133.048 212.218,133.881 205.5,134.5C 206.376,135.251 207.376,135.751 208.5,136C 206.866,136.494 205.199,136.66 203.5,136.5C 203.201,134.396 203.534,132.396 204.5,130.5C 210.783,129.706 217.116,129.206 223.5,129C 226.386,127.615 228.386,125.449 229.5,122.5 Z"/></g>
<g><path style="opacity:0.297" fill="#181719" d="M 45.5,128.5 C 49.8332,126.824 51.4998,128.491 50.5,133.5C 46.7593,134.401 44.7593,133.068 44.5,129.5C 48.8383,129.378 49.1716,129.045 45.5,128.5 Z"/></g>
<g><path style="opacity:0.129" fill="#181519" d="M 59.5,128.5 C 60.209,127.596 61.209,127.263 62.5,127.5C 62.3285,129.492 62.9951,131.158 64.5,132.5C 62.8333,133.833 61.1667,133.833 59.5,132.5C 60.0253,131.808 60.6919,131.308 61.5,131C 60.1667,130.333 60.1667,129.667 61.5,129C 60.9056,128.536 60.2389,128.369 59.5,128.5 Z"/></g>
<g><path style="opacity:0.557" fill="#1e1d22" d="M 67.5,124.5 C 68.4959,124.414 69.3292,124.748 70,125.5C 70.2868,127.891 70.7868,130.224 71.5,132.5C 69.8333,133.833 68.1667,133.833 66.5,132.5C 69.0938,130.239 69.0938,128.072 66.5,126C 67.056,125.617 67.3893,125.117 67.5,124.5 Z"/></g>
<g><path style="opacity:0.22" fill="#e1dadd" d="M 123.5,124.5 C 122.312,125.364 121.145,126.364 120,127.5C 119.548,130.149 118.714,132.649 117.5,135C 118.013,137.718 118.013,140.551 117.5,143.5C 117.167,143.5 116.833,143.5 116.5,143.5C 116.688,141.897 116.188,140.563 115,139.5C 112.223,131.145 115.056,126.145 123.5,124.5 Z"/></g>
<g><path style="opacity:0.196" fill="#87838c" d="M 142.5,134.5 C 143.609,135.29 144.942,135.79 146.5,136C 142.167,136.667 137.833,136.667 133.5,136C 135.058,135.79 136.391,135.29 137.5,134.5C 138.999,133.506 140.666,133.506 142.5,134.5 Z"/></g>
<g><path style="opacity:0.494" fill="#c8c6ce" d="M 182.5,124.5 C 184.138,129.758 182.471,133.925 177.5,137C 172.599,138.407 168.599,137.24 165.5,133.5C 165.833,133.5 166.167,133.5 166.5,133.5C 170.706,135.323 175.039,135.156 179.5,133C 181.93,130.695 182.93,127.862 182.5,124.5 Z"/></g>
<g><path style="opacity:0.144" fill="#79767e" d="M 211.5,136.5 C 215.646,135.353 219.98,135.186 224.5,136C 220.179,136.499 215.846,136.666 211.5,136.5 Z"/></g>
<g><path style="opacity:0.881" fill="#323134" d="M 233.5,125.5 C 233.833,125.5 234.167,125.5 234.5,125.5C 236.099,132.98 240.766,135.98 248.5,134.5C 251.358,135.166 254.358,135.833 257.5,136.5C 257.137,137.183 256.804,137.85 256.5,138.5C 249.958,139.011 243.624,138.178 237.5,136C 234.502,133.176 233.168,129.676 233.5,125.5 Z"/></g>
<g><path style="opacity:0.37" fill="#b3b2b7" d="M 230.5,143.5 C 229.833,143.5 229.167,143.5 228.5,143.5C 228.662,141.473 228.495,139.473 228,137.5C 227.25,136.874 226.416,136.374 225.5,136C 227.112,135.28 228.612,135.446 230,136.5C 230.497,138.81 230.663,141.143 230.5,143.5 Z"/></g>
<g><path style="opacity:1" fill="#313135" d="M 190.5,122.5 C 190.833,122.5 191.167,122.5 191.5,122.5C 194.988,131.696 192.654,139.196 184.5,145C 176.473,148.948 169.14,147.948 162.5,142C 166.02,142.961 169.687,143.794 173.5,144.5C 186.41,142.654 192.077,135.32 190.5,122.5 Z"/></g>
<g><path style="opacity:0.031" fill="#636576" d="M 159.5,138.5 C 160.289,138.783 160.956,139.283 161.5,140C 160.184,140.528 159.517,140.028 159.5,138.5 Z"/></g>
<g><path style="opacity:0.765" fill="#111115" d="M 33.5,139.5 C 35.369,141.635 36.0356,144.302 35.5,147.5C 33.8008,147.66 32.1341,147.494 30.5,147C 29.9781,146.439 29.6448,145.772 29.5,145C 30.5171,142.85 31.8504,141.017 33.5,139.5 Z M 31.5,143.5 C 33.4646,143.948 33.7979,144.948 32.5,146.5C 31.6143,145.675 31.281,144.675 31.5,143.5 Z"/></g>
<g><path style="opacity:0.71" fill="#1c1b1e" d="M 51.5,139.5 C 53.5,139.5 55.5,139.5 57.5,139.5C 57.7733,141.451 57.1066,142.951 55.5,144C 57.2603,144.965 57.5937,146.132 56.5,147.5C 55.2011,146.91 54.3678,145.91 54,144.5C 53.7508,145.624 53.2508,146.624 52.5,147.5C 51.52,144.914 51.1866,142.247 51.5,139.5 Z"/></g>
<g><path style="opacity:0.267" fill="#1d1d1f" d="M 82.5,139.5 C 83.5336,140.687 84.867,141.52 86.5,142C 82.5785,144.58 82.5785,146.08 86.5,146.5C 85.7579,147.287 84.9246,147.953 84,148.5C 81.0053,145.61 80.5053,142.61 82.5,139.5 Z"/></g>
<g><path style="opacity:0.578" fill="#141318" d="M 96.5,141.5 C 98.288,141.215 99.9547,141.548 101.5,142.5C 100.311,143.429 98.9778,143.762 97.5,143.5C 97.5,144.5 97.5,145.5 97.5,146.5C 98.8734,146.343 100.207,146.51 101.5,147C 96.0833,148.42 94.4166,146.586 96.5,141.5 Z"/></g>
<g><path style="opacity:0.17" fill="#4d4d50" d="M 270.5,133.5 C 270.833,133.5 271.167,133.5 271.5,133.5C 271.803,136.588 270.47,138.254 267.5,138.5C 267.708,140.92 267.374,143.253 266.5,145.5C 263.232,146.487 259.898,146.82 256.5,146.5C 256.5,143.833 256.5,141.167 256.5,138.5C 256.804,137.85 257.137,137.183 257.5,136.5C 254.358,135.833 251.358,135.166 248.5,134.5C 251.833,134.5 255.167,134.5 258.5,134.5C 258.5,137.5 258.5,140.5 258.5,143.5C 261.187,143.664 263.854,143.497 266.5,143C 266.296,140.379 266.296,137.545 266.5,134.5C 268.099,134.768 269.432,134.434 270.5,133.5 Z"/></g>
<g><path style="opacity:0.733" fill="#111216" d="M 66.5,139.5 C 68.0843,140.382 69.751,141.215 71.5,142C 73.334,146.675 71.6673,148.508 66.5,147.5C 66.5,144.833 66.5,142.167 66.5,139.5 Z M 68.5,143.5 C 70.4646,143.948 70.7979,144.948 69.5,146.5C 68.6143,145.675 68.281,144.675 68.5,143.5 Z"/></g>
<g><path style="opacity:0.363" fill="#222124" d="M 103.5,141.5 C 107.908,141.062 109.575,143.062 108.5,147.5C 106.5,147.5 104.5,147.5 102.5,147.5C 102.833,145.5 103.167,143.5 103.5,141.5 Z"/></g>
<g><path style="opacity:1" fill="#373638" d="M 116.5,143.5 C 116.833,143.5 117.167,143.5 117.5,143.5C 128.5,143.5 139.5,143.5 150.5,143.5C 150.5,141.167 150.5,138.833 150.5,136.5C 149.448,136.649 148.448,136.483 147.5,136C 149.701,135.175 151.534,135.675 153,137.5C 153.498,140.482 153.665,143.482 153.5,146.5C 142.162,146.667 130.828,146.5 119.5,146C 118.058,145.623 117.058,144.79 116.5,143.5 Z"/></g>
<g><path style="opacity:1" fill="#3b3a3c" d="M 228.5,143.5 C 229.167,143.5 229.833,143.5 230.5,143.5C 230.5,144.5 230.5,145.5 230.5,146.5C 219.162,146.667 207.828,146.5 196.5,146C 195.424,144.274 195.257,142.441 196,140.5C 196.483,141.448 196.649,142.448 196.5,143.5C 207.167,143.5 217.833,143.5 228.5,143.5 Z"/></g>
<g><path style="opacity:0.875" fill="#111015" d="M 38.5,141.5 C 40.7159,141.275 42.3826,142.108 43.5,144C 42.3774,145.044 41.0441,145.71 39.5,146C 40.5,146.333 41.5,146.667 42.5,147C 40.8659,147.494 39.1992,147.66 37.5,147.5C 37.3253,145.379 37.6586,143.379 38.5,141.5 Z"/></g>
<g><path style="opacity:0.519" fill="#0c0a0f" d="M 59.5,141.5 C 62.5904,140.83 64.257,141.997 64.5,145C 64.0456,147.717 62.7123,148.55 60.5,147.5C 59.5344,145.604 59.2011,143.604 59.5,141.5 Z M 60.5,143.5 C 63.9067,143.125 64.4067,144.125 62,146.5C 60.9614,145.756 60.4614,144.756 60.5,143.5 Z"/></g>
<g><path style="opacity:0.506" fill="#191a1d" d="M 76.5,139.5 C 78.9816,141.102 79.815,143.435 79,146.5C 76.2136,148.184 74.3802,147.517 73.5,144.5C 74.0924,142.577 75.0924,140.911 76.5,139.5 Z M 75.5,143.5 C 77.4646,143.948 77.7979,144.948 76.5,146.5C 75.6143,145.675 75.281,144.675 75.5,143.5 Z"/></g>
<g><path style="opacity:0.996" fill="#0d0e10" d="M 90.5,138.5 C 90.9588,141.49 91.9588,144.323 93.5,147C 91.8333,147.667 90.1667,147.667 88.5,147C 91.0578,145.62 91.0578,144.12 88.5,142.5C 89.0253,141.808 89.6919,141.308 90.5,141C 89.4019,140.23 89.4019,139.397 90.5,138.5 Z"/></g>
</svg>
