<?xml version="1.0" encoding="UTF-8"?>
<!DOCTYPE svg PUBLIC "-//W3C//DTD SVG 1.1//EN" "http://www.w3.org/Graphics/SVG/1.1/DTD/svg11.dtd">
<svg xmlns="http://www.w3.org/2000/svg" version="1.1" width="395px" height="127px" style="shape-rendering:geometricPrecision; text-rendering:geometricPrecision; image-rendering:optimizeQuality; fill-rule:evenodd; clip-rule:evenodd" xmlns:xlink="http://www.w3.org/1999/xlink">
<g><path style="opacity:1" fill="#e53d51" d="M -0.5,-0.5 C 130.167,-0.5 260.833,-0.5 391.5,-0.5C 263.001,0.499566 134.334,0.832899 5.5,0.5C 3.83333,0.5 2.16667,0.5 0.5,0.5C 0.5,5.16667 0.5,9.83333 0.5,14.5C 0.166667,14.5 -0.166667,14.5 -0.5,14.5C -0.5,9.5 -0.5,4.5 -0.5,-0.5 Z"/></g>
<g><path style="opacity:1" fill="#df061e" d="M 6.5,2.5 C 519.833,3.16667 519.833,3.83333 6.5,4.5C 6.5,3.83333 6.5,3.16667 6.5,2.5 Z"/></g>
<g><path style="opacity:1" fill="#ea0120" d="M 393.5,0.5 C 393.5,5.83333 393.5,11.1667 393.5,16.5C 384.494,16.6664 375.494,16.4998 366.5,16C 374.827,15.5003 383.16,15.3336 391.5,15.5C 391.5,12.8333 391.5,10.1667 391.5,7.5C 392.525,7.10343 392.692,6.43677 392,5.5C 327.737,6.1658 263.403,6.49913 199,6.5C 134.497,6.49997 70.3298,5.8333 6.5,4.5C 519.833,3.83333 519.833,3.16667 6.5,2.5C 135.402,1.83161 264.402,1.16494 393.5,0.5 Z"/></g>
<g><path style="opacity:1" fill="#de0a27" d="M 391.5,-0.5 C 392.167,-0.5 392.833,-0.5 393.5,-0.5C 393.5,-0.166667 393.5,0.166667 393.5,0.5C 264.402,1.16494 135.402,1.83161 6.5,2.5C 6.5,3.16667 6.5,3.83333 6.5,4.5C 70.3298,5.8333 134.497,6.49997 199,6.5C 263.403,6.49913 327.737,6.1658 392,5.5C 392.692,6.43677 392.525,7.10343 391.5,7.5C 354.167,7.5 316.833,7.5 279.5,7.5C 188.833,7.5 98.1667,7.5 7.5,7.5C 7.58747,10.5983 7.08747,10.9316 6,8.5C 5.50258,5.85397 5.33591,3.1873 5.5,0.5C 134.334,0.832899 263.001,0.499566 391.5,-0.5 Z"/></g>
<g><path style="opacity:1" fill="#e20a21" d="M 5.5,0.5 C 5.33591,3.1873 5.50258,5.85397 6,8.5C 7.08747,10.9316 7.58747,10.5983 7.5,7.5C 98.1667,7.5 188.833,7.5 279.5,7.5C 279.5,8.5 279.5,9.5 279.5,10.5C 282.167,10.5 284.833,10.5 287.5,10.5C 287.5,12.1667 287.5,13.8333 287.5,15.5C 281.974,15.1786 276.64,15.5119 271.5,16.5C 250.084,16.0181 235.751,25.6848 228.5,45.5C 226.876,45.3601 225.71,46.0267 225,47.5C 224.667,50.1667 224.333,52.8333 224,55.5C 223.247,50.6252 223.414,45.7919 224.5,41C 223.681,39.6812 222.681,38.5145 221.5,37.5C 216.955,38.9103 212.288,39.5769 207.5,39.5C 196.522,38.87 185.522,38.87 174.5,39.5C 174.579,42.2706 174.079,44.9373 173,47.5C 173.257,44.6571 173.09,41.9905 172.5,39.5C 187.467,37.6791 202.801,36.8458 218.5,37C 219.444,34.2809 219.777,31.4475 219.5,28.5C 219.216,26.5853 219.549,24.9187 220.5,23.5C 221.461,21.7354 221.795,19.7354 221.5,17.5C 196.994,17.169 172.661,17.5024 148.5,18.5C 146.833,27.1667 145.167,35.8333 143.5,44.5C 142.883,44.6107 142.383,44.944 142,45.5C 141.174,48.7928 140.674,52.1262 140.5,55.5C 138.251,69.7536 135.251,83.7536 131.5,97.5C 132.102,93.3699 132.435,89.3699 132.5,85.5C 131.246,83.6663 130.579,81.6663 130.5,79.5C 129.167,79.5 127.833,79.5 126.5,79.5C 126.307,83.449 125.807,83.449 125,79.5C 124.751,80.624 124.251,81.624 123.5,82.5C 122.945,79.3791 123.278,76.2124 124.5,73C 124.167,72.5 123.833,72 123.5,71.5C 122.719,72.7287 122.219,74.062 122,75.5C 121.722,74.5842 121.222,73.9175 120.5,73.5C 118.473,67.3029 114.473,62.8029 108.5,60C 99.2529,57.0828 89.9196,54.4161 80.5,52C 72.1812,45.54 72.8478,39.8733 82.5,35C 87.5245,33.9093 92.1912,34.7426 96.5,37.5C 97.7051,38.5769 98.3718,39.9102 98.5,41.5C 98.5,43.1667 98.5,44.8333 98.5,46.5C 107.682,46.8266 116.682,46.4933 125.5,45.5C 128.542,29.353 121.875,19.853 105.5,17C 96.8333,16.3333 88.1667,16.3333 79.5,17C 59.8877,20.4449 48.5544,31.9449 45.5,51.5C 45.9732,55.4527 47.3065,59.1193 49.5,62.5C 53.6671,66.0868 58.3338,68.9202 63.5,71C 71.6924,72.7143 79.6924,75.0477 87.5,78C 93.1088,81.1441 93.9421,85.3108 90,90.5C 83.9339,95.1397 77.1006,96.6397 69.5,95C 64.0693,92.607 62.0693,88.4404 63.5,82.5C 54.5,82.5 45.5,82.5 36.5,82.5C 36.5,86.8333 36.5,91.1667 36.5,95.5C 35.8754,90.2182 34.2088,85.2182 31.5,80.5C 29.64,81.0715 27.9733,81.0715 26.5,80.5C 17.6822,79.5067 8.68218,79.1734 -0.5,79.5C -0.5,73.5 -0.5,67.5 -0.5,61.5C 8.5,61.5 17.5,61.5 26.5,61.5C 26.5,60.1667 26.5,58.8333 26.5,57.5C 17.5,57.5 8.5,57.5 -0.5,57.5C -0.5,51.5 -0.5,45.5 -0.5,39.5C 8.5,39.5 17.5,39.5 26.5,39.5C 26.5,38.1667 26.5,36.8333 26.5,35.5C 17.5,35.5 8.5,35.5 -0.5,35.5C -0.5,29.8333 -0.5,24.1667 -0.5,18.5C 8.5,18.5 17.5,18.5 26.5,18.5C 26.5,17.1667 26.5,15.8333 26.5,14.5C 17.8333,14.5 9.16667,14.5 0.5,14.5C 0.5,9.83333 0.5,5.16667 0.5,0.5C 2.16667,0.5 3.83333,0.5 5.5,0.5 Z"/></g>
<g><path style="opacity:1" fill="#e21323" d="M 279.5,7.5 C 316.833,7.5 354.167,7.5 391.5,7.5C 391.5,10.1667 391.5,12.8333 391.5,15.5C 383.16,15.3336 374.827,15.5003 366.5,16C 375.494,16.4998 384.494,16.6664 393.5,16.5C 385.231,18.4698 376.565,19.1364 367.5,18.5C 367.5,19.5 367.5,20.5 367.5,21.5C 376.349,21.1736 385.016,21.507 393.5,22.5C 383.8,22.2173 374.133,22.5507 364.5,23.5C 361.175,23.4296 360.175,22.0962 361.5,19.5C 361.547,17.9996 360.881,16.9996 359.5,16.5C 358.832,18.9688 358.165,21.3021 357.5,23.5C 357.5,21.8333 357.5,20.1667 357.5,18.5C 348.5,18.5 339.5,18.5 330.5,18.5C 326.662,41.904 321.662,64.904 315.5,87.5C 313.78,85.3419 312.947,82.6752 313,79.5C 312.713,81.8907 312.213,84.2241 311.5,86.5C 308.833,87.1667 306.167,87.8333 303.5,88.5C 303.121,90.2131 302.121,91.2131 300.5,91.5C 307.918,76.2542 303.918,65.4208 288.5,59C 280.989,56.4689 273.322,54.4689 265.5,53C 255.468,49.4798 254.135,44.1465 261.5,37C 267.472,33.7348 273.472,33.7348 279.5,37C 281.179,39.5645 281.846,42.3979 281.5,45.5C 290.5,45.5 299.5,45.5 308.5,45.5C 311.294,28.793 304.294,19.293 287.5,17C 282.177,16.5006 276.844,16.334 271.5,16.5C 276.64,15.5119 281.974,15.1786 287.5,15.5C 287.5,13.8333 287.5,12.1667 287.5,10.5C 284.833,10.5 282.167,10.5 279.5,10.5C 279.5,9.5 279.5,8.5 279.5,7.5 Z"/></g>
<g><path style="opacity:1" fill="#f1ced0" d="M -0.5,14.5 C -0.166667,14.5 0.166667,14.5 0.5,14.5C 9.16667,14.5 17.8333,14.5 26.5,14.5C 26.5,15.8333 26.5,17.1667 26.5,18.5C 17.5,18.5 8.5,18.5 -0.5,18.5C -0.5,17.1667 -0.5,15.8333 -0.5,14.5 Z"/></g>
<g><path style="opacity:1" fill="#fcfcfa" d="M 0.5,16.5 C 8.67579,15.1791 17.0091,15.1791 25.5,16.5C 17.1387,17.7729 8.80533,17.7729 0.5,16.5 Z"/></g>
<g><path style="opacity:1" fill="#d5606b" d="M 148.5,18.5 C 172.661,17.5024 196.994,17.169 221.5,17.5C 221.795,19.7354 221.461,21.7354 220.5,23.5C 220.5,21.8333 220.5,20.1667 220.5,18.5C 196.5,18.5 172.5,18.5 148.5,18.5 Z"/></g>
<g><path style="opacity:1" fill="#fdfcfb" d="M 148.5,18.5 C 172.5,18.5 196.5,18.5 220.5,18.5C 220.5,20.1667 220.5,21.8333 220.5,23.5C 219.549,24.9187 219.216,26.5853 219.5,28.5C 218.469,30.9608 217.802,33.6275 217.5,36.5C 202.167,36.5 186.833,36.5 171.5,36.5C 171.5,37.5 171.5,38.5 171.5,39.5C 169.547,44.5728 168.214,49.9061 167.5,55.5C 181.364,55.8393 195.031,56.8393 208.5,58.5C 207.505,63.8236 206.505,69.1569 205.5,74.5C 191.167,74.5 176.833,74.5 162.5,74.5C 161.314,81.1328 160.314,87.7994 159.5,94.5C 174.5,94.5 189.5,94.5 204.5,94.5C 203.5,100.5 202.5,106.5 201.5,112.5C 177.5,112.5 153.5,112.5 129.5,112.5C 129.685,107.43 130.352,102.43 131.5,97.5C 135.251,83.7536 138.251,69.7536 140.5,55.5C 141.945,52.0635 142.945,48.3968 143.5,44.5C 145.167,35.8333 146.833,27.1667 148.5,18.5 Z"/></g>
<g><path style="opacity:1" fill="#fcfbfa" d="M 125.5,45.5 C 116.833,45.5 108.167,45.5 99.5,45.5C 99.7678,43.901 99.4345,42.5676 98.5,41.5C 98.3718,39.9102 97.7051,38.5769 96.5,37.5C 92.1912,34.7426 87.5245,33.9093 82.5,35C 72.8478,39.8733 72.1812,45.54 80.5,52C 89.9196,54.4161 99.2529,57.0828 108.5,60C 114.473,62.8029 118.473,67.3029 120.5,73.5C 121.321,88.0245 115.655,99.1912 103.5,107C 85.6779,115.219 67.3446,116.552 48.5,111C 41.6497,107.989 37.6497,102.823 36.5,95.5C 36.5,91.1667 36.5,86.8333 36.5,82.5C 45.5,82.5 54.5,82.5 63.5,82.5C 62.0693,88.4404 64.0693,92.607 69.5,95C 77.1006,96.6397 83.9339,95.1397 90,90.5C 93.9421,85.3108 93.1088,81.1441 87.5,78C 79.6924,75.0477 71.6924,72.7143 63.5,71C 58.3338,68.9202 53.6671,66.0868 49.5,62.5C 47.3065,59.1193 45.9732,55.4527 45.5,51.5C 48.5544,31.9449 59.8877,20.4449 79.5,17C 88.1667,16.3333 96.8333,16.3333 105.5,17C 121.875,19.853 128.542,29.353 125.5,45.5 Z"/></g>
<g><path style="opacity:1" fill="#f9e6e8" d="M 393.5,-0.5 C 393.833,-0.5 394.167,-0.5 394.5,-0.5C 394.5,20.1667 394.5,40.8333 394.5,61.5C 394.167,61.5 393.833,61.5 393.5,61.5C 393.5,55.1667 393.5,48.8333 393.5,42.5C 384.833,42.5 376.167,42.5 367.5,42.5C 367.5,41.5 367.5,40.5 367.5,39.5C 376.167,39.5 384.833,39.5 393.5,39.5C 393.5,33.8333 393.5,28.1667 393.5,22.5C 385.016,21.507 376.349,21.1736 367.5,21.5C 367.5,20.5 367.5,19.5 367.5,18.5C 376.565,19.1364 385.231,18.4698 393.5,16.5C 393.5,11.1667 393.5,5.83333 393.5,0.5C 393.5,0.166667 393.5,-0.166667 393.5,-0.5 Z"/></g>
<g><path style="opacity:1" fill="#fcfbfa" d="M 271.5,16.5 C 276.844,16.334 282.177,16.5006 287.5,17C 304.294,19.293 311.294,28.793 308.5,45.5C 299.5,45.5 290.5,45.5 281.5,45.5C 281.846,42.3979 281.179,39.5645 279.5,37C 273.472,33.7348 267.472,33.7348 261.5,37C 254.135,44.1465 255.468,49.4798 265.5,53C 273.322,54.4689 280.989,56.4689 288.5,59C 303.918,65.4208 307.918,76.2542 300.5,91.5C 292.101,105.051 279.768,112.551 263.5,114C 252.588,115.307 241.921,114.307 231.5,111C 220.862,104.548 216.529,95.0477 218.5,82.5C 227.5,82.5 236.5,82.5 245.5,82.5C 244.858,91.858 249.191,96.1914 258.5,95.5C 269.57,96.2615 274.736,91.2615 274,80.5C 261.358,75.1709 248.525,70.3376 235.5,66C 229.691,60.4084 227.358,53.575 228.5,45.5C 235.751,25.6848 250.084,16.0181 271.5,16.5 Z"/></g>
<g><path style="opacity:1" fill="#fdfbfb" d="M 357.5,23.5 C 355.383,29.9563 353.549,36.623 352,43.5C 347.382,64.0886 343.216,84.7553 339.5,105.5C 338.784,107.556 338.117,109.723 337.5,112C 328.84,112.5 320.173,112.666 311.5,112.5C 313.316,104.237 314.65,95.9038 315.5,87.5C 321.662,64.904 326.662,41.904 330.5,18.5C 339.5,18.5 348.5,18.5 357.5,18.5C 357.5,20.1667 357.5,21.8333 357.5,23.5 Z"/></g>
<g><path style="opacity:1" fill="#c4192a" d="M 219.5,28.5 C 219.777,31.4475 219.444,34.2809 218.5,37C 202.801,36.8458 187.467,37.6791 172.5,39.5C 172.167,39.5 171.833,39.5 171.5,39.5C 171.5,38.5 171.5,37.5 171.5,36.5C 186.833,36.5 202.167,36.5 217.5,36.5C 217.802,33.6275 218.469,30.9608 219.5,28.5 Z"/></g>
<g><path style="opacity:1" fill="#f4dfdf" d="M -0.5,35.5 C 8.5,35.5 17.5,35.5 26.5,35.5C 26.5,36.8333 26.5,38.1667 26.5,39.5C 17.5,39.5 8.5,39.5 -0.5,39.5C -0.5,38.1667 -0.5,36.8333 -0.5,35.5 Z"/></g>
<g><path style="opacity:1" fill="#e20a21" d="M 228.5,45.5 C 227.358,53.575 229.691,60.4084 235.5,66C 248.525,70.3376 261.358,75.1709 274,80.5C 274.736,91.2615 269.57,96.2615 258.5,95.5C 249.191,96.1914 244.858,91.858 245.5,82.5C 236.5,82.5 227.5,82.5 218.5,82.5C 216.529,95.0477 220.862,104.548 231.5,111C 241.921,114.307 252.588,115.307 263.5,114C 279.768,112.551 292.101,105.051 300.5,91.5C 302.121,91.2131 303.121,90.2131 303.5,88.5C 306.167,87.8333 308.833,87.1667 311.5,86.5C 312.213,84.2241 312.713,81.8907 313,79.5C 312.947,82.6752 313.78,85.3419 315.5,87.5C 314.65,95.9038 313.316,104.237 311.5,112.5C 320.173,112.666 328.84,112.5 337.5,112C 338.117,109.723 338.784,107.556 339.5,105.5C 339.5,107.833 339.5,110.167 339.5,112.5C 344.532,112.332 344.699,113.332 340,115.5C 339.5,115 339,114.5 338.5,114C 329.5,113.333 320.5,113.333 311.5,114C 343.5,114.667 343.5,115.333 311.5,116C 319.5,116.833 327.5,117.667 335.5,118.5C 332.893,119.318 330.226,119.818 327.5,120C 220.5,120.667 113.5,120.667 6.5,120C 5.48632,115.229 5.48632,110.395 6.5,105.5C 4.5,105.5 2.5,105.5 0.5,105.5C 0.5,105.167 0.5,104.833 0.5,104.5C 9.16667,104.5 17.8333,104.5 26.5,104.5C 26.5,103.5 26.5,102.5 26.5,101.5C 18.0161,100.507 9.34945,100.174 0.5,100.5C 0.5,94.8333 0.5,89.1667 0.5,83.5C 9.16667,83.5 17.8333,83.5 26.5,83.5C 26.5,82.5 26.5,81.5 26.5,80.5C 27.9733,81.0715 29.64,81.0715 31.5,80.5C 34.2088,85.2182 35.8754,90.2182 36.5,95.5C 37.6497,102.823 41.6497,107.989 48.5,111C 67.3446,116.552 85.6779,115.219 103.5,107C 115.655,99.1912 121.321,88.0245 120.5,73.5C 121.222,73.9175 121.722,74.5842 122,75.5C 122.219,74.062 122.719,72.7287 123.5,71.5C 123.833,72 124.167,72.5 124.5,73C 123.278,76.2124 122.945,79.3791 123.5,82.5C 124.251,81.624 124.751,80.624 125,79.5C 125.807,83.449 126.307,83.449 126.5,79.5C 127.833,79.5 129.167,79.5 130.5,79.5C 130.579,81.6663 131.246,83.6663 132.5,85.5C 132.435,89.3699 132.102,93.3699 131.5,97.5C 130.352,102.43 129.685,107.43 129.5,112.5C 153.5,112.5 177.5,112.5 201.5,112.5C 202.5,106.5 203.5,100.5 204.5,94.5C 189.5,94.5 174.5,94.5 159.5,94.5C 160.314,87.7994 161.314,81.1328 162.5,74.5C 176.833,74.5 191.167,74.5 205.5,74.5C 206.505,69.1569 207.505,63.8236 208.5,58.5C 209.404,57.791 209.737,56.791 209.5,55.5C 195.5,55.5 181.5,55.5 167.5,55.5C 168.214,49.9061 169.547,44.5728 171.5,39.5C 171.833,39.5 172.167,39.5 172.5,39.5C 173.09,41.9905 173.257,44.6571 173,47.5C 174.079,44.9373 174.579,42.2706 174.5,39.5C 185.522,38.87 196.522,38.87 207.5,39.5C 212.288,39.5769 216.955,38.9103 221.5,37.5C 222.681,38.5145 223.681,39.6812 224.5,41C 223.414,45.7919 223.247,50.6252 224,55.5C 224.333,52.8333 224.667,50.1667 225,47.5C 225.71,46.0267 226.876,45.3601 228.5,45.5 Z"/></g>
<g><path style="opacity:1" fill="#d76c74" d="M 98.5,41.5 C 99.4345,42.5676 99.7678,43.901 99.5,45.5C 108.167,45.5 116.833,45.5 125.5,45.5C 116.682,46.4933 107.682,46.8266 98.5,46.5C 98.5,44.8333 98.5,43.1667 98.5,41.5 Z"/></g>
<g><path style="opacity:1" fill="#d14246" d="M 143.5,44.5 C 142.945,48.3968 141.945,52.0635 140.5,55.5C 140.674,52.1262 141.174,48.7928 142,45.5C 142.383,44.944 142.883,44.6107 143.5,44.5 Z"/></g>
<g><path style="opacity:1" fill="#e20b21" d="M 393.5,22.5 C 393.5,28.1667 393.5,33.8333 393.5,39.5C 384.833,39.5 376.167,39.5 367.5,39.5C 367.5,40.5 367.5,41.5 367.5,42.5C 376.167,42.5 384.833,42.5 393.5,42.5C 393.5,48.8333 393.5,55.1667 393.5,61.5C 384.833,61.5 376.167,61.5 367.5,61.5C 367.5,62.5 367.5,63.5 367.5,64.5C 376.167,64.5 384.833,64.5 393.5,64.5C 393.5,70.8333 393.5,77.1667 393.5,83.5C 384.833,83.5 376.167,83.5 367.5,83.5C 367.5,84.5 367.5,85.5 367.5,86.5C 376.167,86.5 384.833,86.5 393.5,86.5C 393.5,92.5 393.5,98.5 393.5,104.5C 384.833,104.5 376.167,104.5 367.5,104.5C 367.5,105.833 367.5,107.167 367.5,108.5C 376.167,108.5 384.833,108.5 393.5,108.5C 393.5,114.167 393.5,119.833 393.5,125.5C 262.5,125.5 131.5,125.5 0.5,125.5C 0.5,118.833 0.5,112.167 0.5,105.5C 2.5,105.5 4.5,105.5 6.5,105.5C 5.48632,110.395 5.48632,115.229 6.5,120C 113.5,120.667 220.5,120.667 327.5,120C 330.226,119.818 332.893,119.318 335.5,118.5C 327.5,117.667 319.5,116.833 311.5,116C 343.5,115.333 343.5,114.667 311.5,114C 320.5,113.333 329.5,113.333 338.5,114C 339,114.5 339.5,115 340,115.5C 344.699,113.332 344.532,112.332 339.5,112.5C 339.5,110.167 339.5,107.833 339.5,105.5C 343.216,84.7553 347.382,64.0886 352,43.5C 353.549,36.623 355.383,29.9563 357.5,23.5C 358.165,21.3021 358.832,18.9688 359.5,16.5C 360.881,16.9996 361.547,17.9996 361.5,19.5C 360.175,22.0962 361.175,23.4296 364.5,23.5C 374.133,22.5507 383.8,22.2173 393.5,22.5 Z"/></g>
<g><path style="opacity:1" fill="#ebb3bc" d="M 167.5,55.5 C 181.5,55.5 195.5,55.5 209.5,55.5C 209.737,56.791 209.404,57.791 208.5,58.5C 195.031,56.8393 181.364,55.8393 167.5,55.5 Z"/></g>
<g><path style="opacity:1" fill="#f8dee0" d="M -0.5,57.5 C 8.5,57.5 17.5,57.5 26.5,57.5C 26.5,58.8333 26.5,60.1667 26.5,61.5C 17.5,61.5 8.5,61.5 -0.5,61.5C -0.5,60.1667 -0.5,58.8333 -0.5,57.5 Z"/></g>
<g><path style="opacity:1" fill="#fdfaf8" d="M 393.5,61.5 C 393.833,61.5 394.167,61.5 394.5,61.5C 394.5,62.5 394.5,63.5 394.5,64.5C 394.167,64.5 393.833,64.5 393.5,64.5C 384.833,64.5 376.167,64.5 367.5,64.5C 367.5,63.5 367.5,62.5 367.5,61.5C 376.167,61.5 384.833,61.5 393.5,61.5 Z"/></g>
<g><path style="opacity:1" fill="#fbe1e0" d="M -0.5,79.5 C 8.68218,79.1734 17.6822,79.5067 26.5,80.5C 26.5,81.5 26.5,82.5 26.5,83.5C 17.8333,83.5 9.16667,83.5 0.5,83.5C 0.166667,83.5 -0.166667,83.5 -0.5,83.5C -0.5,82.1667 -0.5,80.8333 -0.5,79.5 Z"/></g>
<g><path style="opacity:1" fill="#dd6f76" d="M -0.5,83.5 C -0.166667,83.5 0.166667,83.5 0.5,83.5C 0.5,89.1667 0.5,94.8333 0.5,100.5C 9.34945,100.174 18.0161,100.507 26.5,101.5C 17.5,101.5 8.5,101.5 -0.5,101.5C -0.5,95.5 -0.5,89.5 -0.5,83.5 Z"/></g>
<g><path style="opacity:1" fill="#fdfcf8" d="M -0.5,101.5 C 8.5,101.5 17.5,101.5 26.5,101.5C 26.5,102.5 26.5,103.5 26.5,104.5C 17.8333,104.5 9.16667,104.5 0.5,104.5C 0.166667,104.5 -0.166667,104.5 -0.5,104.5C -0.5,103.5 -0.5,102.5 -0.5,101.5 Z"/></g>
<g><path style="opacity:1" fill="#f8e0e3" d="M 393.5,64.5 C 393.833,64.5 394.167,64.5 394.5,64.5C 394.5,85.1667 394.5,105.833 394.5,126.5C 394.167,126.5 393.833,126.5 393.5,126.5C 393.5,126.167 393.5,125.833 393.5,125.5C 393.5,119.833 393.5,114.167 393.5,108.5C 384.833,108.5 376.167,108.5 367.5,108.5C 367.5,107.167 367.5,105.833 367.5,104.5C 376.167,104.5 384.833,104.5 393.5,104.5C 393.5,98.5 393.5,92.5 393.5,86.5C 384.833,86.5 376.167,86.5 367.5,86.5C 367.5,85.5 367.5,84.5 367.5,83.5C 376.167,83.5 384.833,83.5 393.5,83.5C 393.5,77.1667 393.5,70.8333 393.5,64.5 Z"/></g>
<g><path style="opacity:1" fill="#e94454" d="M -0.5,104.5 C -0.166667,104.5 0.166667,104.5 0.5,104.5C 0.5,104.833 0.5,105.167 0.5,105.5C 0.5,112.167 0.5,118.833 0.5,125.5C 131.5,125.5 262.5,125.5 393.5,125.5C 393.5,125.833 393.5,126.167 393.5,126.5C 262.167,126.5 130.833,126.5 -0.5,126.5C -0.5,119.167 -0.5,111.833 -0.5,104.5 Z"/></g>
</svg>
