<?xml version="1.0" encoding="UTF-8"?>
<!DOCTYPE svg PUBLIC "-//W3C//DTD SVG 1.1//EN" "http://www.w3.org/Graphics/SVG/1.1/DTD/svg11.dtd">
<svg xmlns="http://www.w3.org/2000/svg" version="1.1" width="413px" height="132px" style="shape-rendering:geometricPrecision; text-rendering:geometricPrecision; image-rendering:optimizeQuality; fill-rule:evenodd; clip-rule:evenodd" xmlns:xlink="http://www.w3.org/1999/xlink">
<g><path style="opacity:1" fill="#c22b2f" d="M -0.5,-0.5 C 137.167,-0.5 274.833,-0.5 412.5,-0.5C 412.5,5.83333 412.5,12.1667 412.5,18.5C 403.167,18.5 393.833,18.5 384.5,18.5C 384.5,18.1667 384.5,17.8333 384.5,17.5C 393.5,17.5 402.5,17.5 411.5,17.5C 411.5,11.8333 411.5,6.16667 411.5,0.5C 274.5,0.5 137.5,0.5 0.5,0.5C 0.195316,5.76162 0.528649,10.9283 1.5,16C 9.83333,16.3333 18.1667,16.6667 26.5,17C 28.8633,17.5885 29.8633,19.0885 29.5,21.5C 19.5824,22.4741 9.58244,22.8074 -0.5,22.5C -0.5,22.1667 -0.5,21.8333 -0.5,21.5C 8.83333,21.5 18.1667,21.5 27.5,21.5C 27.5,20.5 27.5,19.5 27.5,18.5C 18.1667,18.5 8.83333,18.5 -0.5,18.5C -0.5,12.1667 -0.5,5.83333 -0.5,-0.5 Z"/></g>
<g><path style="opacity:1" fill="#ea1c24" d="M 384.5,17.5 C 392.984,16.507 401.651,16.1736 410.5,16.5C 410.5,15.5 410.5,14.5 410.5,13.5C 407.921,13.9167 405.754,13.25 404,11.5C 396.893,12.5968 389.726,12.5968 382.5,11.5C 382.5,9.5 382.5,7.5 382.5,5.5C 384.814,6.68201 387.148,8.01535 389.5,9.5C 394.675,10.7608 399.841,10.7608 405,9.5C 406.285,9.95043 407.452,10.6171 408.5,11.5C 409.598,8.24727 410.264,4.91394 410.5,1.5C 275.581,3.15315 140.581,4.15315 5.5,4.5C 11.3866,5.18637 17.2199,5.85304 23,6.5C 43.435,5.17426 63.935,5.17426 84.5,6.5C 82.8333,7.16667 81.1667,7.83333 79.5,8.5C 84.0956,8.72173 88.7623,8.88839 93.5,9C 95.3049,9.97201 96.9716,11.1387 98.5,12.5C 99.8809,10.3089 101.881,8.97561 104.5,8.5C 99.8685,7.67169 95.2018,7.17169 90.5,7C 90.8333,6.66667 91.1667,6.33333 91.5,6C 102.828,5.50014 114.162,5.33348 125.5,5.5C 126.953,6.82487 126.619,7.6582 124.5,8C 121.953,8.65955 119.453,8.49288 117,7.5C 113.693,8.94399 110.193,9.94399 106.5,10.5C 108,10.8333 109.5,11.1667 111,11.5C 114.166,10.6949 117.333,10.0282 120.5,9.5C 120.33,10.8221 120.663,11.9887 121.5,13C 125.777,12.5254 128.777,14.1921 130.5,18C 126.421,20.5953 124.255,19.4287 124,14.5C 121.204,14.5441 118.371,14.8774 115.5,15.5C 109.35,14.9939 103.184,14.6606 97,14.5C 92.4428,14.5085 88.2762,15.1752 84.5,16.5C 84.1583,17.3382 83.4916,17.6716 82.5,17.5C 79.8478,17.4095 77.5145,18.0762 75.5,19.5C 66.8118,22.1695 59.4785,26.8362 53.5,33.5C 50.3514,34.1603 48.8514,36.1603 49,39.5C 48.6667,39.1667 48.3333,38.8333 48,38.5C 46.252,44.0627 45.5853,49.7294 46,55.5C 46.3221,58.6663 47.4887,61.333 49.5,63.5C 49.5,64.5 49.5,65.5 49.5,66.5C 48.4168,66.4606 47.4168,66.1272 46.5,65.5C 45.8076,66.0253 45.3076,66.6919 45,67.5C 41.6774,62.8786 39.5107,57.7119 38.5,52C 39.4162,49.1833 41.0829,48.0166 43.5,48.5C 44.3513,45.5414 45.0179,42.5414 45.5,39.5C 44.0052,37.8303 42.6718,35.997 41.5,34C 36.088,32.5758 34.4213,34.4092 36.5,39.5C 34.5082,39.6715 32.8415,39.0049 31.5,37.5C 30.4528,38.9223 30.4528,40.4223 31.5,42C 31.1639,43.0299 30.4972,43.5299 29.5,43.5C 29.7135,41.8561 29.3802,40.3561 28.5,39C 19.5062,38.5002 10.5062,38.3336 1.5,38.5C 1.5,34.5 1.5,30.5 1.5,26.5C 10.7933,25.5817 20.1266,25.2483 29.5,25.5C 29.5,24.1667 29.5,22.8333 29.5,21.5C 29.8633,19.0885 28.8633,17.5885 26.5,17C 18.1667,16.6667 9.83333,16.3333 1.5,16C 0.528649,10.9283 0.195316,5.76162 0.5,0.5C 137.5,0.5 274.5,0.5 411.5,0.5C 411.5,6.16667 411.5,11.8333 411.5,17.5C 402.5,17.5 393.5,17.5 384.5,17.5 Z"/></g>
<g><path style="opacity:1" fill="#f11929" d="M 382.5,5.5 C 381.167,5.5 379.833,5.5 378.5,5.5C 368.828,5.33353 359.161,5.5002 349.5,6C 351.35,9.46594 350.35,11.2993 346.5,11.5C 346.5,9.5 346.5,7.5 346.5,5.5C 329.497,5.3334 312.497,5.50006 295.5,6C 289.376,8.17793 283.042,9.01126 276.5,8.5C 276.5,7.5 276.5,6.5 276.5,5.5C 262.251,4.95731 248.085,5.62398 234,7.5C 232.272,7.54631 230.772,7.04631 229.5,6C 206.074,5.55482 182.741,5.38816 159.5,5.5C 148.167,5.5 136.833,5.5 125.5,5.5C 114.162,5.33348 102.828,5.50014 91.5,6C 91.1667,6.33333 90.8333,6.66667 90.5,7C 95.2018,7.17169 99.8685,7.67169 104.5,8.5C 101.881,8.97561 99.8809,10.3089 98.5,12.5C 96.9716,11.1387 95.3049,9.97201 93.5,9C 88.7623,8.88839 84.0956,8.72173 79.5,8.5C 81.1667,7.83333 82.8333,7.16667 84.5,6.5C 63.935,5.17426 43.435,5.17426 23,6.5C 17.2199,5.85304 11.3866,5.18637 5.5,4.5C 140.581,4.15315 275.581,3.15315 410.5,1.5C 410.264,4.91394 409.598,8.24727 408.5,11.5C 407.452,10.6171 406.285,9.95043 405,9.5C 399.841,10.7608 394.675,10.7608 389.5,9.5C 387.148,8.01535 384.814,6.68201 382.5,5.5 Z"/></g>
<g><path style="opacity:1" fill="#ec1b24" d="M 125.5,5.5 C 136.833,5.5 148.167,5.5 159.5,5.5C 160.234,6.70792 160.567,8.04125 160.5,9.5C 183.773,11.4516 206.94,12.1183 230,11.5C 230.658,13.108 230.158,14.2747 228.5,15C 206.996,15.1681 185.663,15.6681 164.5,16.5C 161.223,16.2161 158.057,16.5495 155,17.5C 152.291,23.8763 150.791,30.543 150.5,37.5C 150.5,38.8333 150.5,40.1667 150.5,41.5C 149.118,49.0173 147.451,56.3507 145.5,63.5C 143.443,67.8021 142.443,72.4688 142.5,77.5C 141.542,77.9528 140.708,78.6195 140,79.5C 139.667,82.5 139.333,85.5 139,88.5C 138.586,88.9574 138.086,89.2907 137.5,89.5C 136.833,88.5 136.167,87.5 135.5,86.5C 134.567,91.3022 134.567,96.1355 135.5,101C 135.333,102.833 135.167,104.667 135,106.5C 133.764,107.399 132.93,108.566 132.5,110C 133.774,113.177 133.774,116.344 132.5,119.5C 122.219,121.476 111.552,122.143 100.5,121.5C 100.5,123.167 100.5,124.833 100.5,126.5C 95.1667,126.5 89.8333,126.5 84.5,126.5C 84.6495,127.552 84.4828,128.552 84,129.5C 73.7517,127.618 63.2517,126.618 52.5,126.5C 52.5,125.5 52.5,124.5 52.5,123.5C 58.0441,123.252 63.3774,123.919 68.5,125.5C 68.5,124.5 68.5,123.5 68.5,122.5C 75.3859,122.603 82.0526,121.936 88.5,120.5C 95.9025,119.585 102.736,117.252 109,113.5C 109.333,113.833 109.667,114.167 110,114.5C 111.372,113.09 112.205,111.423 112.5,109.5C 116.503,109.029 119.669,107.029 122,103.5C 126.598,94.7392 128.264,85.4059 127,75.5C 126.617,74.944 126.117,74.6107 125.5,74.5C 125.373,67.8641 122.04,63.6975 115.5,62C 115.833,61.6667 116.167,61.3333 116.5,61C 114.5,60.6667 112.5,60.3333 110.5,60C 111.741,58.5135 111.241,57.6801 109,57.5C 101.159,56.4427 93.3262,55.4427 85.5,54.5C 82.329,53.9943 79.9957,52.3276 78.5,49.5C 77.3395,44.8254 79.0061,42.1587 83.5,41.5C 83.5,40.5 83.5,39.5 83.5,38.5C 89.6975,38.6077 95.6975,39.6077 101.5,41.5C 101.205,43.7354 101.539,45.7354 102.5,47.5C 111.833,48.8333 121.167,48.8333 130.5,47.5C 131.5,47.5 132.5,47.5 133.5,47.5C 134.022,41.2709 133.356,35.2709 131.5,29.5C 132.888,26.835 131.888,25.835 128.5,26.5C 128.5,24.8333 128.5,23.1667 128.5,21.5C 127.127,21.6567 125.793,21.49 124.5,21C 122.015,18.1236 119.015,16.2903 115.5,15.5C 118.371,14.8774 121.204,14.5441 124,14.5C 124.255,19.4287 126.421,20.5953 130.5,18C 128.777,14.1921 125.777,12.5254 121.5,13C 120.663,11.9887 120.33,10.8221 120.5,9.5C 117.333,10.0282 114.166,10.6949 111,11.5C 109.5,11.1667 108,10.8333 106.5,10.5C 110.193,9.94399 113.693,8.94399 117,7.5C 119.453,8.49288 121.953,8.65955 124.5,8C 126.619,7.6582 126.953,6.82487 125.5,5.5 Z"/></g>
<g><path style="opacity:1" fill="#eb1b24" d="M 159.5,5.5 C 182.741,5.38816 206.074,5.55482 229.5,6C 230.772,7.04631 232.272,7.54631 234,7.5C 248.085,5.62398 262.251,4.95731 276.5,5.5C 276.5,6.5 276.5,7.5 276.5,8.5C 283.042,9.01126 289.376,8.17793 295.5,6C 312.497,5.50006 329.497,5.3334 346.5,5.5C 346.5,7.5 346.5,9.5 346.5,11.5C 350.35,11.2993 351.35,9.46594 349.5,6C 359.161,5.5002 368.828,5.33353 378.5,5.5C 378.736,8.22568 377.903,10.559 376,12.5C 369.582,11.3567 363.082,11.19 356.5,12C 354.998,12.5831 353.665,13.4164 352.5,14.5C 359.989,15.1667 367.322,15.8334 374.5,16.5C 365.161,16.3335 355.827,16.5002 346.5,17C 343.932,21.0342 342.765,25.5342 343,30.5C 342.667,30.1667 342.333,29.8333 342,29.5C 341.529,34.8443 341.029,40.1777 340.5,45.5C 339.584,47.815 338.25,49.9817 336.5,52C 337.097,53.0617 337.43,54.2284 337.5,55.5C 335.786,59.9373 335.12,64.604 335.5,69.5C 334.883,69.6107 334.383,69.944 334,70.5C 332.421,76.7364 331.588,83.0697 331.5,89.5C 331.5,89.8333 331.5,90.1667 331.5,90.5C 330.526,91.635 329.359,92.635 328,93.5C 327.716,100.253 326.882,106.92 325.5,113.5C 324.293,114.189 322.959,114.355 321.5,114C 319.836,117.136 317.169,118.303 313.5,117.5C 313.833,115.5 314.167,113.5 314.5,111.5C 312.173,111.753 310.173,111.086 308.5,109.5C 311.508,106.789 314.508,104.122 317.5,101.5C 318.515,96.1988 319.348,90.8655 320,85.5C 321.195,88.8068 322.028,88.9735 322.5,86C 322.037,83.6106 321.37,81.2772 320.5,79C 321.493,76.5472 321.66,74.0472 321,71.5C 319.371,71.8363 317.871,71.1696 316.5,69.5C 315.222,68.2505 314.222,66.7505 313.5,65C 302.219,59.304 290.219,55.804 277.5,54.5C 269.487,52.3482 267.487,47.6815 271.5,40.5C 275.183,39.0842 279.017,38.0842 283,37.5C 285.856,37.8711 288.689,38.3711 291.5,39C 292.921,41.8614 293.921,44.8614 294.5,48C 304.009,48.8243 313.343,48.6576 322.5,47.5C 323.117,47.3893 323.617,47.056 324,46.5C 324.9,40.3661 324.4,34.3661 322.5,28.5C 322.043,27.7025 321.376,27.3691 320.5,27.5C 319.5,24.5 317.5,22.5 314.5,21.5C 313.657,19.8267 312.324,18.66 310.5,18C 299.11,15.4423 287.777,14.9423 276.5,16.5C 273.997,17.3705 271.33,18.0372 268.5,18.5C 264.951,18.4392 261.618,19.2725 258.5,21C 256.937,21.7589 255.937,22.9256 255.5,24.5C 255.167,24.5 254.833,24.5 254.5,24.5C 252.139,24.6741 249.806,25.0074 247.5,25.5C 248.092,29.074 246.592,31.074 243,31.5C 241.871,35.9175 240.038,39.9175 237.5,43.5C 235.845,39.2927 234.679,34.9594 234,30.5C 233.586,30.9574 233.086,31.2907 232.5,31.5C 231.513,28.2317 231.18,24.8984 231.5,21.5C 233.814,20.8213 234.147,19.488 232.5,17.5C 209.843,16.5003 187.176,16.167 164.5,16.5C 185.663,15.6681 206.996,15.1681 228.5,15C 230.158,14.2747 230.658,13.108 230,11.5C 206.94,12.1183 183.773,11.4516 160.5,9.5C 160.567,8.04125 160.234,6.70792 159.5,5.5 Z"/></g>
<g><path style="opacity:1" fill="#cf2b2e" d="M 115.5,15.5 C 119.015,16.2903 122.015,18.1236 124.5,21C 125.793,21.49 127.127,21.6567 128.5,21.5C 128.5,23.1667 128.5,24.8333 128.5,26.5C 131.888,25.835 132.888,26.835 131.5,29.5C 133.356,35.2709 134.022,41.2709 133.5,47.5C 132.5,47.5 131.5,47.5 130.5,47.5C 132.752,39.2578 131.419,31.7578 126.5,25C 124.595,23.5787 122.595,22.412 120.5,21.5C 120.5,20.8333 120.167,20.5 119.5,20.5C 115.174,17.1771 110.174,15.8438 104.5,16.5C 97.8333,16.5 91.1667,16.5 84.5,16.5C 88.2762,15.1752 92.4428,14.5085 97,14.5C 103.184,14.6606 109.35,14.9939 115.5,15.5 Z"/></g>
<g><path style="opacity:1" fill="#bc272b" d="M 164.5,16.5 C 187.176,16.167 209.843,16.5003 232.5,17.5C 234.147,19.488 233.814,20.8213 231.5,21.5C 231.5,20.5 231.5,19.5 231.5,18.5C 206.158,18.1669 180.825,18.5002 155.5,19.5C 154.873,20.4168 154.539,21.4168 154.5,22.5C 153.514,26.4432 152.848,30.4432 152.5,34.5C 151.833,35.5 151.167,36.5 150.5,37.5C 150.791,30.543 152.291,23.8763 155,17.5C 158.057,16.5495 161.223,16.2161 164.5,16.5 Z"/></g>
<g><path style="opacity:1" fill="#be3636" d="M 276.5,16.5 C 287.777,14.9423 299.11,15.4423 310.5,18C 312.324,18.66 313.657,19.8267 314.5,21.5C 302.225,17.1169 289.559,15.4502 276.5,16.5 Z"/></g>
<g><path style="opacity:1" fill="#c2292d" d="M 374.5,16.5 C 374.5,17.1667 374.5,17.8333 374.5,18.5C 365.167,18.5 355.833,18.5 346.5,18.5C 346.384,21.8599 346.051,25.1933 345.5,28.5C 343.644,33.922 342.311,39.5887 341.5,45.5C 341.167,45.5 340.833,45.5 340.5,45.5C 341.029,40.1777 341.529,34.8443 342,29.5C 342.333,29.8333 342.667,30.1667 343,30.5C 342.765,25.5342 343.932,21.0342 346.5,17C 355.827,16.5002 365.161,16.3335 374.5,16.5 Z"/></g>
<g><path style="opacity:1" fill="#ffe6e0" d="M 84.5,16.5 C 91.1667,16.5 97.8333,16.5 104.5,16.5C 109.498,17.3807 114.498,18.714 119.5,20.5C 120.167,20.5 120.5,20.8333 120.5,21.5C 107.972,19.0533 95.305,18.0533 82.5,18.5C 82.5,18.1667 82.5,17.8333 82.5,17.5C 83.4916,17.6716 84.1583,17.3382 84.5,16.5 Z"/></g>
<g><path style="opacity:1" fill="#c94f50" d="M 104.5,16.5 C 110.174,15.8438 115.174,17.1771 119.5,20.5C 114.498,18.714 109.498,17.3807 104.5,16.5 Z"/></g>
<g><path style="opacity:1" fill="#fee1db" d="M 276.5,16.5 C 289.559,15.4502 302.225,17.1169 314.5,21.5C 314.5,21.8333 314.5,22.1667 314.5,22.5C 310.132,21.5476 305.799,20.3809 301.5,19C 290.473,18.2598 279.473,18.4265 268.5,19.5C 268.5,19.1667 268.5,18.8333 268.5,18.5C 271.33,18.0372 273.997,17.3705 276.5,16.5 Z"/></g>
<g><path style="opacity:1" fill="#f9afb1" d="M 82.5,17.5 C 82.5,17.8333 82.5,18.1667 82.5,18.5C 80.1944,18.9926 77.861,19.3259 75.5,19.5C 77.5145,18.0762 79.8478,17.4095 82.5,17.5 Z"/></g>
<g><path style="opacity:1" fill="#ffd2d5" d="M 231.5,21.5 C 231.167,21.5 230.833,21.5 230.5,21.5C 218.686,20.1676 206.519,19.5009 194,19.5C 181.833,19.6667 169.667,19.8333 157.5,20C 156.627,21.045 155.627,21.8783 154.5,22.5C 154.539,21.4168 154.873,20.4168 155.5,19.5C 180.825,18.5002 206.158,18.1669 231.5,18.5C 231.5,19.5 231.5,20.5 231.5,21.5 Z"/></g>
<g><path style="opacity:1" fill="#be3237" d="M 268.5,18.5 C 268.5,18.8333 268.5,19.1667 268.5,19.5C 263.765,20.1882 259.432,21.8549 255.5,24.5C 255.937,22.9256 256.937,21.7589 258.5,21C 261.618,19.2725 264.951,18.4392 268.5,18.5 Z"/></g>
<g><path style="opacity:1" fill="#fcfafa" d="M 314.5,22.5 C 316.5,24.1667 318.5,25.8333 320.5,27.5C 323.507,33.9068 324.174,40.5735 322.5,47.5C 313.5,47.5 304.5,47.5 295.5,47.5C 295.968,40.9296 292.968,37.0963 286.5,36C 280.563,34.6477 275.563,36.1477 271.5,40.5C 267.487,47.6815 269.487,52.3482 277.5,54.5C 284.267,56.75 291.267,58.5833 298.5,60C 305.792,62.4654 311.792,66.6321 316.5,72.5C 317.329,77.453 317.663,82.453 317.5,87.5C 315.278,96.936 310.278,104.603 302.5,110.5C 297.353,113.41 292.019,115.744 286.5,117.5C 277.924,119.142 269.257,119.809 260.5,119.5C 250.279,120.371 241.446,117.371 234,110.5C 232.128,107.404 230.295,104.404 228.5,101.5C 228.179,96.3054 228.513,91.3054 229.5,86.5C 238.5,86.5 247.5,86.5 256.5,86.5C 256.205,88.7354 256.539,90.7354 257.5,92.5C 257.833,93.8333 258.167,95.1667 258.5,96.5C 258.343,97.8734 258.51,99.2068 259,100.5C 259.333,100.167 259.667,99.8333 260,99.5C 267.267,102.096 274.767,103.263 282.5,103C 283.833,102.333 283.833,101.667 282.5,101C 284.883,100.935 285.55,100.102 284.5,98.5C 287.842,94.1619 289.509,89.1619 289.5,83.5C 286.331,83.3383 284.331,81.6716 283.5,78.5C 276.898,77.0628 270.231,76.0628 263.5,75.5C 245.493,73.4937 237.493,63.4937 239.5,45.5C 242.277,36.9582 247.277,29.9582 254.5,24.5C 254.833,24.5 255.167,24.5 255.5,24.5C 259.432,21.8549 263.765,20.1882 268.5,19.5C 279.473,18.4265 290.473,18.2598 301.5,19C 305.799,20.3809 310.132,21.5476 314.5,22.5 Z"/></g>
<g><path style="opacity:1" fill="#ffe8e8" d="M -0.5,18.5 C 8.83333,18.5 18.1667,18.5 27.5,18.5C 27.5,19.5 27.5,20.5 27.5,21.5C 18.1667,21.5 8.83333,21.5 -0.5,21.5C -0.5,20.5 -0.5,19.5 -0.5,18.5 Z"/></g>
<g><path style="opacity:1" fill="#fcfaf9" d="M 82.5,18.5 C 95.305,18.0533 107.972,19.0533 120.5,21.5C 122.595,22.412 124.595,23.5787 126.5,25C 131.419,31.7578 132.752,39.2578 130.5,47.5C 121.5,47.5 112.5,47.5 103.5,47.5C 103.802,44.9407 103.468,42.6074 102.5,40.5C 93.8502,33.2636 85.6835,33.9303 78,42.5C 77.2042,45.0385 77.3709,47.3718 78.5,49.5C 79.9957,52.3276 82.329,53.9943 85.5,54.5C 93.128,56.9899 100.795,59.3232 108.5,61.5C 106.453,61.4889 104.453,61.1556 102.5,60.5C 100.128,61.3628 100.128,62.5295 102.5,64C 99.8127,64.0506 97.146,63.5506 94.5,62.5C 95.8038,60.9843 95.3038,60.3176 93,60.5C 92.1667,60.8333 91.3333,61.1667 90.5,61.5C 91.2458,62.7362 91.5792,64.0695 91.5,65.5C 89.1667,65.5 86.8333,65.5 84.5,65.5C 84.5,66.8333 84.5,68.1667 84.5,69.5C 80.8979,69.678 80.8979,70.678 84.5,72.5C 83.9598,73.7481 83.2931,74.9148 82.5,76C 84.7148,77.0438 87.0481,77.7105 89.5,78C 90.8228,78.8159 91.4894,79.9826 91.5,81.5C 86.7222,79.3522 81.7222,78.0188 76.5,77.5C 73.8877,76.6295 71.221,75.9628 68.5,75.5C 63.8141,73.661 59.1475,71.4944 54.5,69C 52.6997,67.1881 51.0331,65.3548 49.5,63.5C 45.9107,52.7977 47.244,42.7977 53.5,33.5C 59.4785,26.8362 66.8118,22.1695 75.5,19.5C 77.861,19.3259 80.1944,18.9926 82.5,18.5 Z"/></g>
<g><path style="opacity:1" fill="#fdfcfb" d="M 230.5,21.5 C 229.659,26.5311 228.659,31.5311 227.5,36.5C 211.51,37.3329 195.51,37.8329 179.5,38C 177.776,43.7294 176.443,49.5627 175.5,55.5C 174.596,56.209 174.263,57.209 174.5,58.5C 189.167,58.5 203.833,58.5 218.5,58.5C 217.371,64.8127 216.371,71.1461 215.5,77.5C 200.496,77.3334 185.496,77.5001 170.5,78C 169.548,82.8216 168.548,87.6549 167.5,92.5C 167.5,92.8333 167.5,93.1667 167.5,93.5C 166.549,94.9187 166.216,96.5853 166.5,98.5C 182.36,98.8383 198.027,99.8383 213.5,101.5C 212.85,103.435 212.517,105.435 212.5,107.5C 212.5,107.833 212.5,108.167 212.5,108.5C 211.343,111.273 210.676,114.273 210.5,117.5C 209.167,117.5 207.833,117.5 206.5,117.5C 206.823,113.774 206.489,110.107 205.5,106.5C 204.513,109.768 204.18,113.102 204.5,116.5C 184.5,116.5 164.5,116.5 144.5,116.5C 143.833,112.5 143.167,112.5 142.5,116.5C 140.833,116.5 139.167,116.5 137.5,116.5C 137.5,112.5 137.5,108.5 137.5,104.5C 139.038,95.4748 140.705,86.4748 142.5,77.5C 143.915,73.0419 144.915,68.3752 145.5,63.5C 147.451,56.3507 149.118,49.0173 150.5,41.5C 151.924,39.4855 152.59,37.1522 152.5,34.5C 152.848,30.4432 153.514,26.4432 154.5,22.5C 155.627,21.8783 156.627,21.045 157.5,20C 169.667,19.8333 181.833,19.6667 194,19.5C 206.519,19.5009 218.686,20.1676 230.5,21.5 Z"/></g>
<g><path style="opacity:1" fill="#fcfcfc" d="M 357.5,95.5 C 357.5,97.5 357.5,99.5 357.5,101.5C 356.36,104.368 355.36,107.368 354.5,110.5C 353.539,112.265 353.205,114.265 353.5,116.5C 345.5,116.5 337.5,116.5 329.5,116.5C 329.567,114.599 329.233,112.766 328.5,111C 330.823,106.158 331.989,100.991 332,95.5C 333.342,96.9023 334.176,96.5689 334.5,94.5C 333.314,89.5041 333.314,84.5041 334.5,79.5C 334.833,76.1667 335.167,72.8333 335.5,69.5C 337.102,65.7607 338.102,61.7607 338.5,57.5C 341.114,54.0319 342.114,50.0319 341.5,45.5C 342.311,39.5887 343.644,33.922 345.5,28.5C 346.791,26.0523 348.124,23.5523 349.5,21C 357.167,20.3333 364.833,20.3333 372.5,21C 369.887,31.2635 367.221,41.5969 364.5,52C 365.333,57.1729 364.167,62.0063 361,66.5C 360.289,68.8991 360.456,71.2324 361.5,73.5C 359.658,80.7441 358.325,88.0774 357.5,95.5 Z"/></g>
<g><path style="opacity:1" fill="#ffd8d9" d="M 384.5,18.5 C 393.833,18.5 403.167,18.5 412.5,18.5C 412.5,19.8333 412.5,21.1667 412.5,22.5C 403.167,22.5 393.833,22.5 384.5,22.5C 384.5,21.1667 384.5,19.8333 384.5,18.5 Z"/></g>
<g><path style="opacity:1" fill="#c74d4c" d="M 314.5,22.5 C 314.5,22.1667 314.5,21.8333 314.5,21.5C 317.5,22.5 319.5,24.5 320.5,27.5C 318.5,25.8333 316.5,24.1667 314.5,22.5 Z"/></g>
<g><path style="opacity:1" fill="#d32127" d="M 29.5,21.5 C 29.5,22.8333 29.5,24.1667 29.5,25.5C 20.1266,25.2483 10.7933,25.5817 1.5,26.5C 1.5,30.5 1.5,34.5 1.5,38.5C 10.5062,38.3336 19.5062,38.5002 28.5,39C 29.3802,40.3561 29.7135,41.8561 29.5,43.5C 28.3192,45.0672 26.6526,45.9005 24.5,46C 16.5069,46.4997 8.50694,46.6664 0.5,46.5C 8.16667,45.8333 15.8333,45.1667 23.5,44.5C 24.8333,44.5 26.1667,44.5 27.5,44.5C 27.67,43.1779 27.3366,42.0113 26.5,41C 17.5062,40.5002 8.50617,40.3336 -0.5,40.5C -0.5,34.5 -0.5,28.5 -0.5,22.5C 9.58244,22.8074 19.5824,22.4741 29.5,21.5 Z"/></g>
<g><path style="opacity:1" fill="#d22b2e" d="M 102.5,40.5 C 102.5,42.8333 102.5,45.1667 102.5,47.5C 101.539,45.7354 101.205,43.7354 101.5,41.5C 95.6975,39.6077 89.6975,38.6077 83.5,38.5C 83.5,39.5 83.5,40.5 83.5,41.5C 79.0061,42.1587 77.3395,44.8254 78.5,49.5C 77.3709,47.3718 77.2042,45.0385 78,42.5C 85.6835,33.9303 93.8502,33.2636 102.5,40.5 Z"/></g>
<g><path style="opacity:1" fill="#c12427" d="M 53.5,33.5 C 47.244,42.7977 45.9107,52.7977 49.5,63.5C 47.4887,61.333 46.3221,58.6663 46,55.5C 45.5853,49.7294 46.252,44.0627 48,38.5C 48.3333,38.8333 48.6667,39.1667 49,39.5C 48.8514,36.1603 50.3514,34.1603 53.5,33.5 Z"/></g>
<g><path style="opacity:1" fill="#ed9d9c" d="M 152.5,34.5 C 152.59,37.1522 151.924,39.4855 150.5,41.5C 150.5,40.1667 150.5,38.8333 150.5,37.5C 151.167,36.5 151.833,35.5 152.5,34.5 Z"/></g>
<g><path style="opacity:1" fill="#ffd9dc" d="M -0.5,40.5 C 8.50617,40.3336 17.5062,40.5002 26.5,41C 27.3366,42.0113 27.67,43.1779 27.5,44.5C 26.1667,44.5 24.8333,44.5 23.5,44.5C 15.5,44.5 7.5,44.5 -0.5,44.5C -0.5,43.1667 -0.5,41.8333 -0.5,40.5 Z"/></g>
<g><path style="opacity:1" fill="#db2a2d" d="M 230.5,21.5 C 230.833,21.5 231.167,21.5 231.5,21.5C 231.18,24.8984 231.513,28.2317 232.5,31.5C 233.086,31.2907 233.586,30.9574 234,30.5C 234.679,34.9594 235.845,39.2927 237.5,43.5C 240.038,39.9175 241.871,35.9175 243,31.5C 246.592,31.074 248.092,29.074 247.5,25.5C 249.806,25.0074 252.139,24.6741 254.5,24.5C 247.277,29.9582 242.277,36.9582 239.5,45.5C 237.896,46.287 237.229,47.6203 237.5,49.5C 236.566,50.5676 236.232,51.901 236.5,53.5C 235.127,53.6567 233.793,53.49 232.5,53C 233.61,50.2628 233.777,47.4294 233,44.5C 231.39,42.4032 230.223,40.0698 229.5,37.5C 228.713,38.2421 228.047,39.0754 227.5,40C 212.167,40.3333 196.833,40.6667 181.5,41C 180.685,44.2559 179.685,47.4226 178.5,50.5C 179.204,52.5351 179.871,54.5351 180.5,56.5C 193.504,56.3334 206.504,56.5001 219.5,57C 220.801,58.6155 220.801,60.1155 219.5,61.5C 219.737,60.209 219.404,59.209 218.5,58.5C 203.971,58.161 189.638,57.161 175.5,55.5C 176.443,49.5627 177.776,43.7294 179.5,38C 195.51,37.8329 211.51,37.3329 227.5,36.5C 228.659,31.5311 229.659,26.5311 230.5,21.5 Z"/></g>
<g><path style="opacity:1" fill="#c2383f" d="M 320.5,27.5 C 321.376,27.3691 322.043,27.7025 322.5,28.5C 324.4,34.3661 324.9,40.3661 324,46.5C 323.617,47.056 323.117,47.3893 322.5,47.5C 324.174,40.5735 323.507,33.9068 320.5,27.5 Z"/></g>
<g><path style="opacity:1" fill="#d13036" d="M 374.5,18.5 C 377.114,21.6966 376.947,24.6966 374,27.5C 373.566,32.1739 373.066,36.8406 372.5,41.5C 372.551,43.0998 372.884,44.5998 373.5,46C 372.234,46.3095 371.067,46.8095 370,47.5C 369.505,49.4727 369.338,51.4727 369.5,53.5C 368.833,53.5 368.167,53.5 367.5,53.5C 369.451,41.7469 371.784,30.0802 374.5,18.5 Z"/></g>
<g><path style="opacity:1" fill="#ffd4d4" d="M 412.5,40.5 C 412.5,41.8333 412.5,43.1667 412.5,44.5C 403.167,44.5 393.833,44.5 384.5,44.5C 384.5,43.1667 384.5,41.8333 384.5,40.5C 393.833,40.5 403.167,40.5 412.5,40.5 Z"/></g>
<g><path style="opacity:1" fill="#bf2024" d="M 384.5,18.5 C 384.5,19.8333 384.5,21.1667 384.5,22.5C 393.833,22.5 403.167,22.5 412.5,22.5C 412.5,28.5 412.5,34.5 412.5,40.5C 403.167,40.5 393.833,40.5 384.5,40.5C 384.5,41.8333 384.5,43.1667 384.5,44.5C 393.833,44.5 403.167,44.5 412.5,44.5C 412.5,50.8333 412.5,57.1667 412.5,63.5C 403.167,63.5 393.833,63.5 384.5,63.5C 384.5,64.8333 384.5,66.1667 384.5,67.5C 382.29,66.5449 381.957,65.0449 383.5,63C 392.827,62.5002 402.161,62.3335 411.5,62.5C 411.5,57.1667 411.5,51.8333 411.5,46.5C 402.827,46.6664 394.16,46.4998 385.5,46C 382.805,44.5836 382.139,42.5836 383.5,40C 392.827,39.5002 402.161,39.3335 411.5,39.5C 411.803,34.57 411.469,29.7367 410.5,25C 402.118,24.1971 393.785,24.3638 385.5,25.5C 383.447,23.2712 383.114,20.9379 384.5,18.5 Z"/></g>
<g><path style="opacity:1" fill="#d8585b" d="M 102.5,40.5 C 103.468,42.6074 103.802,44.9407 103.5,47.5C 112.5,47.5 121.5,47.5 130.5,47.5C 121.167,48.8333 111.833,48.8333 102.5,47.5C 102.5,45.1667 102.5,42.8333 102.5,40.5 Z"/></g>
<g><path style="opacity:1" fill="#d14c4e" d="M 322.5,47.5 C 313.343,48.6576 304.009,48.8243 294.5,48C 293.921,44.8614 292.921,41.8614 291.5,39C 288.689,38.3711 285.856,37.8711 283,37.5C 279.017,38.0842 275.183,39.0842 271.5,40.5C 275.563,36.1477 280.563,34.6477 286.5,36C 292.968,37.0963 295.968,40.9296 295.5,47.5C 304.5,47.5 313.5,47.5 322.5,47.5 Z"/></g>
<g><path style="opacity:1" fill="#f7c2bc" d="M 340.5,45.5 C 340.833,45.5 341.167,45.5 341.5,45.5C 342.114,50.0319 341.114,54.0319 338.5,57.5C 339.761,53.6265 340.428,49.6265 340.5,45.5 Z"/></g>
<g><path style="opacity:1" fill="#b02527" d="M -0.5,44.5 C 7.5,44.5 15.5,44.5 23.5,44.5C 15.8333,45.1667 8.16667,45.8333 0.5,46.5C 0.5,51.8333 0.5,57.1667 0.5,62.5C 9.34945,62.1736 18.0161,62.507 26.5,63.5C 17.5,63.5 8.5,63.5 -0.5,63.5C -0.5,57.1667 -0.5,50.8333 -0.5,44.5 Z"/></g>
<g><path style="opacity:1" fill="#c2565c" d="M 175.5,55.5 C 189.638,57.161 203.971,58.161 218.5,58.5C 203.833,58.5 189.167,58.5 174.5,58.5C 174.263,57.209 174.596,56.209 175.5,55.5 Z"/></g>
<g><path style="opacity:1" fill="#c73337" d="M 277.5,54.5 C 290.219,55.804 302.219,59.304 313.5,65C 314.222,66.7505 315.222,68.2505 316.5,69.5C 316.5,70.5 316.5,71.5 316.5,72.5C 311.792,66.6321 305.792,62.4654 298.5,60C 291.267,58.5833 284.267,56.75 277.5,54.5 Z"/></g>
<g><path style="opacity:1" fill="#cf3136" d="M 85.5,54.5 C 93.3262,55.4427 101.159,56.4427 109,57.5C 111.241,57.6801 111.741,58.5135 110.5,60C 112.5,60.3333 114.5,60.6667 116.5,61C 116.167,61.3333 115.833,61.6667 115.5,62C 122.04,63.6975 125.373,67.8641 125.5,74.5C 121.852,67.5175 116.185,63.1842 108.5,61.5C 100.795,59.3232 93.128,56.9899 85.5,54.5 Z"/></g>
<g><path style="opacity:1" fill="#f9a6ab" d="M -0.5,64.5 C -0.5,64.1667 -0.5,63.8333 -0.5,63.5C 8.5,63.5 17.5,63.5 26.5,63.5C 27.8333,64.8333 27.8333,66.1667 26.5,67.5C 26.5,66.5 26.5,65.5 26.5,64.5C 17.5,64.5 8.5,64.5 -0.5,64.5 Z"/></g>
<g><path style="opacity:1" fill="#f9abad" d="M 412.5,63.5 C 412.5,63.8333 412.5,64.1667 412.5,64.5C 403.5,64.5 394.5,64.5 385.5,64.5C 385.5,65.5 385.5,66.5 385.5,67.5C 385.167,67.5 384.833,67.5 384.5,67.5C 384.5,66.1667 384.5,64.8333 384.5,63.5C 393.833,63.5 403.167,63.5 412.5,63.5 Z"/></g>
<g><path style="opacity:1" fill="#ffeeef" d="M -0.5,64.5 C 8.5,64.5 17.5,64.5 26.5,64.5C 26.5,65.5 26.5,66.5 26.5,67.5C 17.5,67.5 8.5,67.5 -0.5,67.5C -0.5,66.5 -0.5,65.5 -0.5,64.5 Z"/></g>
<g><path style="opacity:1" fill="#c02d2f" d="M 145.5,63.5 C 144.915,68.3752 143.915,73.0419 142.5,77.5C 142.443,72.4688 143.443,67.8021 145.5,63.5 Z"/></g>
<g><path style="opacity:1" fill="#c02428" d="M 340.5,45.5 C 340.428,49.6265 339.761,53.6265 338.5,57.5C 338.102,61.7607 337.102,65.7607 335.5,69.5C 335.12,64.604 335.786,59.9373 337.5,55.5C 337.43,54.2284 337.097,53.0617 336.5,52C 338.25,49.9817 339.584,47.815 340.5,45.5 Z"/></g>
<g><path style="opacity:1" fill="#ffe6e4" d="M 412.5,64.5 C 412.5,65.5 412.5,66.5 412.5,67.5C 403.5,67.5 394.5,67.5 385.5,67.5C 385.5,66.5 385.5,65.5 385.5,64.5C 394.5,64.5 403.5,64.5 412.5,64.5 Z"/></g>
<g><path style="opacity:1" fill="#eb1b24" d="M 49.5,66.5 C 52.2895,69.4016 55.6228,71.5683 59.5,73C 60.7014,73.9025 61.5348,75.0692 62,76.5C 64.0408,75.5769 66.2075,75.2436 68.5,75.5C 71.221,75.9628 73.8877,76.6295 76.5,77.5C 79.6143,80.922 83.6143,82.422 88.5,82C 91.4433,83.0712 93.4433,85.0712 94.5,88C 93.9233,90.137 93.59,92.3037 93.5,94.5C 90.2329,95.1129 87.2329,96.4462 84.5,98.5C 82.3637,99.0152 80.197,99.3486 78,99.5C 74.5458,99.1213 71.3791,98.1213 68.5,96.5C 67.6403,92.5662 67.307,88.5662 67.5,84.5C 56.7517,84.1909 46.085,84.5242 35.5,85.5C 34.1801,91.1079 33.3467,96.7746 33,102.5C 30.9361,103.591 28.7695,103.758 26.5,103C 28.2495,101.681 30.2495,101.181 32.5,101.5C 32.6567,100.127 32.49,98.7932 32,97.5C 28.5065,99.377 24.6732,100.044 20.5,99.5C 20.5,100.833 20.5,102.167 20.5,103.5C 21.5,103.5 22.5,103.5 23.5,103.5C 23.5,104.5 23.5,105.5 23.5,106.5C 16.1793,107.727 8.84595,107.727 1.5,106.5C 2.32496,105.614 3.32496,105.281 4.5,105.5C 3.83333,102.833 3.16667,100.167 2.5,97.5C 8.50924,97.6662 14.5092,97.4995 20.5,97C 23.2661,95.629 25.5994,93.7957 27.5,91.5C 27.7678,89.901 27.4345,88.5676 26.5,87.5C 26.3893,86.8826 26.056,86.3826 25.5,86C 17.1733,85.5003 8.83999,85.3336 0.5,85.5C 0.5,79.8333 0.5,74.1667 0.5,68.5C 9.34945,68.8264 18.0161,68.493 26.5,67.5C 27.8333,66.1667 27.8333,64.8333 26.5,63.5C 18.0161,62.507 9.34945,62.1736 0.5,62.5C 0.5,57.1667 0.5,51.8333 0.5,46.5C 8.50694,46.6664 16.5069,46.4997 24.5,46C 26.6526,45.9005 28.3192,45.0672 29.5,43.5C 30.4972,43.5299 31.1639,43.0299 31.5,42C 30.4528,40.4223 30.4528,38.9223 31.5,37.5C 32.8415,39.0049 34.5082,39.6715 36.5,39.5C 34.4213,34.4092 36.088,32.5758 41.5,34C 42.6718,35.997 44.0052,37.8303 45.5,39.5C 45.0179,42.5414 44.3513,45.5414 43.5,48.5C 41.0829,48.0166 39.4162,49.1833 38.5,52C 39.5107,57.7119 41.6774,62.8786 45,67.5C 45.3076,66.6919 45.8076,66.0253 46.5,65.5C 47.4168,66.1272 48.4168,66.4606 49.5,66.5 Z"/></g>
<g><path style="opacity:1" fill="#cb3438" d="M 49.5,63.5 C 51.0331,65.3548 52.6997,67.1881 54.5,69C 59.1475,71.4944 63.8141,73.661 68.5,75.5C 66.2075,75.2436 64.0408,75.5769 62,76.5C 61.5348,75.0692 60.7014,73.9025 59.5,73C 55.6228,71.5683 52.2895,69.4016 49.5,66.5C 49.5,65.5 49.5,64.5 49.5,63.5 Z"/></g>
<g><path style="opacity:1" fill="#ec1b23" d="M 378.5,5.5 C 379.833,5.5 381.167,5.5 382.5,5.5C 382.5,7.5 382.5,9.5 382.5,11.5C 389.726,12.5968 396.893,12.5968 404,11.5C 405.754,13.25 407.921,13.9167 410.5,13.5C 410.5,14.5 410.5,15.5 410.5,16.5C 401.651,16.1736 392.984,16.507 384.5,17.5C 384.5,17.8333 384.5,18.1667 384.5,18.5C 383.114,20.9379 383.447,23.2712 385.5,25.5C 393.785,24.3638 402.118,24.1971 410.5,25C 411.469,29.7367 411.803,34.57 411.5,39.5C 402.161,39.3335 392.827,39.5002 383.5,40C 382.139,42.5836 382.805,44.5836 385.5,46C 394.16,46.4998 402.827,46.6664 411.5,46.5C 411.5,51.8333 411.5,57.1667 411.5,62.5C 402.161,62.3335 392.827,62.5002 383.5,63C 381.957,65.0449 382.29,66.5449 384.5,67.5C 393.318,68.4933 402.318,68.8266 411.5,68.5C 411.5,74.1667 411.5,79.8333 411.5,85.5C 402.105,84.8623 393.105,85.5289 384.5,87.5C 384.5,88.5 384.5,89.5 384.5,90.5C 384.5,91.1667 384.5,91.8333 384.5,92.5C 384.5,94.1667 384.5,95.8333 384.5,97.5C 391.167,97.5 397.833,97.5 404.5,97.5C 404.5,96.1667 404.5,94.8333 404.5,93.5C 406.167,93.5 407.833,93.5 409.5,93.5C 409.058,97.7307 409.058,102.064 409.5,106.5C 399.787,106.805 390.12,106.805 380.5,106.5C 380.291,105.914 379.957,105.414 379.5,105C 380.833,103 382.5,101.333 384.5,100C 383.57,99.0093 382.404,98.5093 381,98.5C 378.7,99.9629 376.534,101.63 374.5,103.5C 371.275,102.187 370.109,99.8533 371,96.5C 372.494,97.7472 373.994,97.7472 375.5,96.5C 374.289,95.1255 373.289,93.6255 372.5,92C 373.272,90.779 374.272,89.779 375.5,89C 374.241,88.0766 372.908,87.2432 371.5,86.5C 372.428,85.2322 372.595,83.8989 372,82.5C 369.568,85.4719 367.901,88.8053 367,92.5C 367.035,98.8534 367.535,105.187 368.5,111.5C 366.5,111.5 364.5,111.5 362.5,111.5C 363.265,100.904 365.098,90.5712 368,80.5C 368.333,80.8333 368.667,81.1667 369,81.5C 369.895,79.1955 370.729,76.8622 371.5,74.5C 372.086,74.7093 372.586,75.0426 373,75.5C 373.495,73.5273 373.662,71.5273 373.5,69.5C 372.5,69.5 371.5,69.5 370.5,69.5C 370.5,70.8333 370.5,72.1667 370.5,73.5C 369.5,73.5 368.5,73.5 367.5,73.5C 368.818,66.9064 369.485,60.2397 369.5,53.5C 369.338,51.4727 369.505,49.4727 370,47.5C 371.067,46.8095 372.234,46.3095 373.5,46C 372.884,44.5998 372.551,43.0998 372.5,41.5C 373.066,36.8406 373.566,32.1739 374,27.5C 376.947,24.6966 377.114,21.6966 374.5,18.5C 374.5,17.8333 374.5,17.1667 374.5,16.5C 367.322,15.8334 359.989,15.1667 352.5,14.5C 353.665,13.4164 354.998,12.5831 356.5,12C 363.082,11.19 369.582,11.3567 376,12.5C 377.903,10.559 378.736,8.22568 378.5,5.5 Z"/></g>
<g><path style="opacity:1" fill="#c83333" d="M -0.5,67.5 C 8.5,67.5 17.5,67.5 26.5,67.5C 18.0161,68.493 9.34945,68.8264 0.5,68.5C 0.5,74.1667 0.5,79.8333 0.5,85.5C 8.83999,85.3336 17.1733,85.5003 25.5,86C 26.056,86.3826 26.3893,86.8826 26.5,87.5C 17.5,87.5 8.5,87.5 -0.5,87.5C -0.5,80.8333 -0.5,74.1667 -0.5,67.5 Z"/></g>
<g><path style="opacity:1" fill="#feedea" d="M 374.5,18.5 C 371.784,30.0802 369.451,41.7469 367.5,53.5C 364.711,65.6748 362.044,78.0081 359.5,90.5C 358.833,92.1667 358.167,93.8333 357.5,95.5C 358.325,88.0774 359.658,80.7441 361.5,73.5C 360.456,71.2324 360.289,68.8991 361,66.5C 364.167,62.0063 365.333,57.1729 364.5,52C 367.221,41.5969 369.887,31.2635 372.5,21C 364.833,20.3333 357.167,20.3333 349.5,21C 348.124,23.5523 346.791,26.0523 345.5,28.5C 346.051,25.1933 346.384,21.8599 346.5,18.5C 355.833,18.5 365.167,18.5 374.5,18.5 Z"/></g>
<g><path style="opacity:1" fill="#cd353b" d="M 367.5,53.5 C 366.887,61.182 366.053,68.8487 365,76.5C 363.615,81.5143 361.782,86.181 359.5,90.5C 362.044,78.0081 364.711,65.6748 367.5,53.5 Z"/></g>
<g><path style="opacity:1" fill="#cd4146" d="M 218.5,58.5 C 219.404,59.209 219.737,60.209 219.5,61.5C 218.342,66.7209 217.342,72.0543 216.5,77.5C 201.487,78.2317 186.487,78.8984 171.5,79.5C 170.656,83.8741 169.656,88.2075 168.5,92.5C 168.167,92.5 167.833,92.5 167.5,92.5C 168.548,87.6549 169.548,82.8216 170.5,78C 185.496,77.5001 200.496,77.3334 215.5,77.5C 216.371,71.1461 217.371,64.8127 218.5,58.5 Z"/></g>
<g><path style="opacity:1" fill="#c2302e" d="M 384.5,67.5 C 384.833,67.5 385.167,67.5 385.5,67.5C 394.5,67.5 403.5,67.5 412.5,67.5C 412.5,74.1667 412.5,80.8333 412.5,87.5C 403.167,87.5 393.833,87.5 384.5,87.5C 393.105,85.5289 402.105,84.8623 411.5,85.5C 411.5,79.8333 411.5,74.1667 411.5,68.5C 402.318,68.8266 393.318,68.4933 384.5,67.5 Z"/></g>
<g><path style="opacity:1" fill="#c13438" d="M 76.5,77.5 C 81.7222,78.0188 86.7222,79.3522 91.5,81.5C 94.7481,82.9287 96.0814,85.4287 95.5,89C 94.6437,95.1909 90.9771,98.8575 84.5,100C 80.5,100.667 76.5,100.667 72.5,100C 70.6803,99.7996 69.347,98.9663 68.5,97.5C 68.5,97.1667 68.5,96.8333 68.5,96.5C 71.3791,98.1213 74.5458,99.1213 78,99.5C 80.197,99.3486 82.3637,99.0152 84.5,98.5C 87.2329,96.4462 90.2329,95.1129 93.5,94.5C 93.59,92.3037 93.9233,90.137 94.5,88C 93.4433,85.0712 91.4433,83.0712 88.5,82C 83.6143,82.422 79.6143,80.922 76.5,77.5 Z"/></g>
<g><path style="opacity:1" fill="#ec1b24" d="M 237.5,49.5 C 236.952,55.5529 238.119,61.2196 241,66.5C 245.037,69.2355 248.87,72.2355 252.5,75.5C 258.391,77.2449 264.391,78.4115 270.5,79C 272.125,79.8525 272.458,80.8525 271.5,82C 275.863,82.3694 280.196,82.8694 284.5,83.5C 286.252,94.4383 281.419,99.7716 270,99.5C 266.316,99.1755 262.983,97.8421 260,95.5C 259.004,92.0911 258.171,88.7577 257.5,85.5C 257.167,85.5 256.833,85.5 256.5,85.5C 247.343,84.3424 238.009,84.1757 228.5,85C 227.175,90.5992 227.175,96.0992 228.5,101.5C 229.541,104.542 229.541,107.542 228.5,110.5C 233.998,113.677 239.665,116.677 245.5,119.5C 245.389,120.117 245.056,120.617 244.5,121C 233.839,121.5 223.172,121.667 212.5,121.5C 212.67,122.822 212.337,123.989 211.5,125C 199.333,125.167 187.167,125.333 175,125.5C 162.126,125.147 149.46,125.147 137,125.5C 136.833,125.167 136.667,124.833 136.5,124.5C 137.376,123.749 138.376,123.249 139.5,123C 138.167,122.667 136.833,122.333 135.5,122C 160.167,121.667 184.833,121.333 209.5,121C 210.737,120.768 211.737,120.268 212.5,119.5C 212.5,115.833 212.5,112.167 212.5,108.5C 212.5,108.167 212.5,107.833 212.5,107.5C 213.496,107.586 214.329,107.252 215,106.5C 215.808,104.577 216.308,102.577 216.5,100.5C 216.695,98.2753 215.861,96.6087 214,95.5C 199.199,96.6424 184.366,96.8091 169.5,96C 168.663,94.9887 168.33,93.8221 168.5,92.5C 169.656,88.2075 170.656,83.8741 171.5,79.5C 186.487,78.8984 201.487,78.2317 216.5,77.5C 217.342,72.0543 218.342,66.7209 219.5,61.5C 220.801,60.1155 220.801,58.6155 219.5,57C 206.504,56.5001 193.504,56.3334 180.5,56.5C 179.871,54.5351 179.204,52.5351 178.5,50.5C 179.685,47.4226 180.685,44.2559 181.5,41C 196.833,40.6667 212.167,40.3333 227.5,40C 228.047,39.0754 228.713,38.2421 229.5,37.5C 230.223,40.0698 231.39,42.4032 233,44.5C 233.777,47.4294 233.61,50.2628 232.5,53C 233.793,53.49 235.127,53.6567 236.5,53.5C 236.232,51.901 236.566,50.5676 237.5,49.5 Z"/></g>
<g><path style="opacity:1" fill="#d12f33" d="M 239.5,45.5 C 237.493,63.4937 245.493,73.4937 263.5,75.5C 268.623,77.3007 273.956,78.8007 279.5,80C 281.584,80.6972 283.251,81.8639 284.5,83.5C 280.196,82.8694 275.863,82.3694 271.5,82C 272.458,80.8525 272.125,79.8525 270.5,79C 264.391,78.4115 258.391,77.2449 252.5,75.5C 248.87,72.2355 245.037,69.2355 241,66.5C 238.119,61.2196 236.952,55.5529 237.5,49.5C 237.229,47.6203 237.896,46.287 239.5,45.5 Z"/></g>
<g><path style="opacity:1" fill="#ca3736" d="M 68.5,96.5 C 67.5416,96.0472 66.7083,95.3805 66,94.5C 65.5026,91.854 65.3359,89.1873 65.5,86.5C 56.1667,86.5 46.8333,86.5 37.5,86.5C 37.3339,92.1764 37.5006,97.8431 38,103.5C 38.7918,106.106 40.2918,108.106 42.5,109.5C 43.1667,110.5 43.8333,111.5 44.5,112.5C 40.4775,111.162 37.8108,108.495 36.5,104.5C 35.5037,98.2015 35.1703,91.8682 35.5,85.5C 46.085,84.5242 56.7517,84.1909 67.5,84.5C 67.307,88.5662 67.6403,92.5662 68.5,96.5 Z"/></g>
<g><path style="opacity:1" fill="#be1019" d="M 256.5,85.5 C 247.318,85.1734 238.318,85.5067 229.5,86.5C 228.513,91.3054 228.179,96.3054 228.5,101.5C 227.175,96.0992 227.175,90.5992 228.5,85C 238.009,84.1757 247.343,84.3424 256.5,85.5 Z"/></g>
<g><path style="opacity:1" fill="#ffebe8" d="M -0.5,87.5 C 8.5,87.5 17.5,87.5 26.5,87.5C 26.5,88.5 26.5,89.5 26.5,90.5C 17.5,90.5 8.5,90.5 -0.5,90.5C -0.5,89.5 -0.5,88.5 -0.5,87.5 Z"/></g>
<g><path style="opacity:1" fill="#ffecea" d="M 384.5,87.5 C 393.833,87.5 403.167,87.5 412.5,87.5C 412.5,88.5 412.5,89.5 412.5,90.5C 403.167,90.5 393.833,90.5 384.5,90.5C 384.5,89.5 384.5,88.5 384.5,87.5 Z"/></g>
<g><path style="opacity:1" fill="#bf625c" d="M 26.5,87.5 C 27.4345,88.5676 27.7678,89.901 27.5,91.5C 26.8333,91.5 26.1667,91.5 25.5,91.5C 16.8333,91.5 8.16667,91.5 -0.5,91.5C -0.5,91.1667 -0.5,90.8333 -0.5,90.5C 8.5,90.5 17.5,90.5 26.5,90.5C 26.5,89.5 26.5,88.5 26.5,87.5 Z"/></g>
<g><path style="opacity:1" fill="#fcfbfa" d="M 108.5,61.5 C 116.185,63.1842 121.852,67.5175 125.5,74.5C 127.037,84.7557 124.87,94.089 119,102.5C 116.628,104.703 114.461,107.037 112.5,109.5C 97.628,117.808 81.628,121.142 64.5,119.5C 63.1667,119.5 61.8333,119.5 60.5,119.5C 56.8566,118.331 53.1899,116.998 49.5,115.5C 47.6675,114.752 46.0009,113.752 44.5,112.5C 43.8333,111.5 43.1667,110.5 42.5,109.5C 41.3171,106.297 39.9837,103.13 38.5,100C 38.7831,95.9406 38.7831,91.7739 38.5,87.5C 46.9157,87.6749 55.249,87.6749 63.5,87.5C 64.3184,90.1071 64.8184,92.7737 65,95.5C 65.8159,96.8228 66.9826,97.4894 68.5,97.5C 69.347,98.9663 70.6803,99.7996 72.5,100C 76.5,100.667 80.5,100.667 84.5,100C 90.9771,98.8575 94.6437,95.1909 95.5,89C 96.0814,85.4287 94.7481,82.9287 91.5,81.5C 91.4894,79.9826 90.8228,78.8159 89.5,78C 87.0481,77.7105 84.7148,77.0438 82.5,76C 83.2931,74.9148 83.9598,73.7481 84.5,72.5C 80.8979,70.678 80.8979,69.678 84.5,69.5C 84.5,68.1667 84.5,66.8333 84.5,65.5C 86.8333,65.5 89.1667,65.5 91.5,65.5C 91.5792,64.0695 91.2458,62.7362 90.5,61.5C 91.3333,61.1667 92.1667,60.8333 93,60.5C 95.3038,60.3176 95.8038,60.9843 94.5,62.5C 97.146,63.5506 99.8127,64.0506 102.5,64C 100.128,62.5295 100.128,61.3628 102.5,60.5C 104.453,61.1556 106.453,61.4889 108.5,61.5 Z"/></g>
<g><path style="opacity:1" fill="#cb363a" d="M 125.5,74.5 C 126.117,74.6107 126.617,74.944 127,75.5C 128.264,85.4059 126.598,94.7392 122,103.5C 119.669,107.029 116.503,109.029 112.5,109.5C 114.461,107.037 116.628,104.703 119,102.5C 124.87,94.089 127.037,84.7557 125.5,74.5 Z"/></g>
<g><path style="opacity:1" fill="#b93033" d="M 284.5,83.5 C 286.453,84.2439 287.453,85.7439 287.5,88C 285.614,96.9711 279.948,101.138 270.5,100.5C 265.824,100.942 261.824,99.6082 258.5,96.5C 258.167,95.1667 257.833,93.8333 257.5,92.5C 257.5,90.1667 257.5,87.8333 257.5,85.5C 258.171,88.7577 259.004,92.0911 260,95.5C 262.983,97.8421 266.316,99.1755 270,99.5C 281.419,99.7716 286.252,94.4383 284.5,83.5 Z"/></g>
<g><path style="opacity:1" fill="#fee8e8" d="M 263.5,75.5 C 270.231,76.0628 276.898,77.0628 283.5,78.5C 284.331,81.6716 286.331,83.3383 289.5,83.5C 289.509,89.1619 287.842,94.1619 284.5,98.5C 285.55,100.102 284.883,100.935 282.5,101C 283.833,101.667 283.833,102.333 282.5,103C 274.767,103.263 267.267,102.096 260,99.5C 259.667,99.8333 259.333,100.167 259,100.5C 258.51,99.2068 258.343,97.8734 258.5,96.5C 261.824,99.6082 265.824,100.942 270.5,100.5C 279.948,101.138 285.614,96.9711 287.5,88C 287.453,85.7439 286.453,84.2439 284.5,83.5C 283.251,81.8639 281.584,80.6972 279.5,80C 273.956,78.8007 268.623,77.3007 263.5,75.5 Z"/></g>
<g><path style="opacity:1" fill="#b73031" d="M 384.5,90.5 C 393.833,90.5 403.167,90.5 412.5,90.5C 412.5,96.8333 412.5,103.167 412.5,109.5C 403.833,109.5 395.167,109.5 386.5,109.5C 385.833,109.5 385.167,109.5 384.5,109.5C 393.318,108.507 402.318,108.173 411.5,108.5C 411.5,103.167 411.5,97.8333 411.5,92.5C 402.5,92.5 393.5,92.5 384.5,92.5C 384.5,91.8333 384.5,91.1667 384.5,90.5 Z"/></g>
<g><path style="opacity:1" fill="#bb2129" d="M -0.5,91.5 C 8.16667,91.5 16.8333,91.5 25.5,91.5C 17.6841,92.4924 9.68413,92.8257 1.5,92.5C 1.52755,97.8617 1.19422,103.195 0.5,108.5C 9.01676,108.174 17.3501,108.507 25.5,109.5C 16.8333,109.5 8.16667,109.5 -0.5,109.5C -0.5,103.5 -0.5,97.5 -0.5,91.5 Z"/></g>
<g><path style="opacity:1" fill="#ffd6d9" d="M -0.5,110.5 C -0.5,110.167 -0.5,109.833 -0.5,109.5C 8.16667,109.5 16.8333,109.5 25.5,109.5C 25.8333,109.5 26.1667,109.5 26.5,109.5C 26.7148,111.179 26.0481,112.179 24.5,112.5C 24.0825,111.778 23.4158,111.278 22.5,111C 14.8406,110.5 7.1739,110.334 -0.5,110.5 Z"/></g>
<g><path style="opacity:1" fill="#fef3f5" d="M -0.5,110.5 C 7.1739,110.334 14.8406,110.5 22.5,111C 23.4158,111.278 24.0825,111.778 24.5,112.5C 16.1667,112.5 7.83333,112.5 -0.5,112.5C -0.5,111.833 -0.5,111.167 -0.5,110.5 Z"/></g>
<g><path style="opacity:1" fill="#ffeaee" d="M 386.5,109.5 C 395.167,109.5 403.833,109.5 412.5,109.5C 412.5,110.5 412.5,111.5 412.5,112.5C 403.475,112.832 394.475,112.498 385.5,111.5C 385.863,110.817 386.196,110.15 386.5,109.5 Z"/></g>
<g><path style="opacity:1" fill="#f8a9ad" d="M 26.5,109.5 C 27.4345,110.568 27.7678,111.901 27.5,113.5C 26.5,113.5 25.5,113.5 24.5,113.5C 16.1667,113.5 7.83333,113.5 -0.5,113.5C -0.5,113.167 -0.5,112.833 -0.5,112.5C 7.83333,112.5 16.1667,112.5 24.5,112.5C 26.0481,112.179 26.7148,111.179 26.5,109.5 Z"/></g>
<g><path style="opacity:1" fill="#f8b0b3" d="M 384.5,109.5 C 385.167,109.5 385.833,109.5 386.5,109.5C 386.196,110.15 385.863,110.817 385.5,111.5C 394.475,112.498 403.475,112.832 412.5,112.5C 412.5,112.833 412.5,113.167 412.5,113.5C 403.167,113.5 393.833,113.5 384.5,113.5C 384.5,112.167 384.5,110.833 384.5,109.5 Z"/></g>
<g><path style="opacity:1" fill="#d63b3c" d="M 142.5,77.5 C 140.705,86.4748 139.038,95.4748 137.5,104.5C 135.882,108.575 134.882,112.908 134.5,117.5C 158.5,117.5 182.5,117.5 206.5,117.5C 207.833,117.5 209.167,117.5 210.5,117.5C 210.676,114.273 211.343,111.273 212.5,108.5C 212.5,112.167 212.5,115.833 212.5,119.5C 185.833,119.5 159.167,119.5 132.5,119.5C 133.774,116.344 133.774,113.177 132.5,110C 132.93,108.566 133.764,107.399 135,106.5C 135.167,104.667 135.333,102.833 135.5,101C 134.567,96.1355 134.567,91.3022 135.5,86.5C 136.167,87.5 136.833,88.5 137.5,89.5C 138.086,89.2907 138.586,88.9574 139,88.5C 139.333,85.5 139.667,82.5 140,79.5C 140.708,78.6195 141.542,77.9528 142.5,77.5 Z"/></g>
<g><path style="opacity:1" fill="#ea1c24" d="M 367.5,53.5 C 368.167,53.5 368.833,53.5 369.5,53.5C 369.485,60.2397 368.818,66.9064 367.5,73.5C 368.5,73.5 369.5,73.5 370.5,73.5C 370.5,72.1667 370.5,70.8333 370.5,69.5C 371.5,69.5 372.5,69.5 373.5,69.5C 373.662,71.5273 373.495,73.5273 373,75.5C 372.586,75.0426 372.086,74.7093 371.5,74.5C 370.729,76.8622 369.895,79.1955 369,81.5C 368.667,81.1667 368.333,80.8333 368,80.5C 365.098,90.5712 363.265,100.904 362.5,111.5C 364.5,111.5 366.5,111.5 368.5,111.5C 367.535,105.187 367.035,98.8534 367,92.5C 367.901,88.8053 369.568,85.4719 372,82.5C 372.595,83.8989 372.428,85.2322 371.5,86.5C 372.908,87.2432 374.241,88.0766 375.5,89C 374.272,89.779 373.272,90.779 372.5,92C 373.289,93.6255 374.289,95.1255 375.5,96.5C 373.994,97.7472 372.494,97.7472 371,96.5C 370.109,99.8533 371.275,102.187 374.5,103.5C 376.534,101.63 378.7,99.9629 381,98.5C 382.404,98.5093 383.57,99.0093 384.5,100C 382.5,101.333 380.833,103 379.5,105C 379.957,105.414 380.291,105.914 380.5,106.5C 390.12,106.805 399.787,106.805 409.5,106.5C 409.058,102.064 409.058,97.7307 409.5,93.5C 407.833,93.5 406.167,93.5 404.5,93.5C 404.5,94.8333 404.5,96.1667 404.5,97.5C 397.833,97.5 391.167,97.5 384.5,97.5C 384.5,95.8333 384.5,94.1667 384.5,92.5C 393.5,92.5 402.5,92.5 411.5,92.5C 411.5,97.8333 411.5,103.167 411.5,108.5C 402.318,108.173 393.318,108.507 384.5,109.5C 382.29,110.455 381.957,111.955 383.5,114C 392.827,114.5 402.161,114.666 411.5,114.5C 411.5,119.833 411.5,125.167 411.5,130.5C 274.5,130.5 137.5,130.5 0.5,130.5C 0.5,125.167 0.5,119.833 0.5,114.5C 8.68413,114.826 16.6841,114.492 24.5,113.5C 25.5,113.5 26.5,113.5 27.5,113.5C 27.7678,111.901 27.4345,110.568 26.5,109.5C 26.1667,109.5 25.8333,109.5 25.5,109.5C 17.3501,108.507 9.01676,108.174 0.5,108.5C 1.19422,103.195 1.52755,97.8617 1.5,92.5C 9.68413,92.8257 17.6841,92.4924 25.5,91.5C 26.1667,91.5 26.8333,91.5 27.5,91.5C 25.5994,93.7957 23.2661,95.629 20.5,97C 14.5092,97.4995 8.50924,97.6662 2.5,97.5C 3.16667,100.167 3.83333,102.833 4.5,105.5C 3.32496,105.281 2.32496,105.614 1.5,106.5C 8.84595,107.727 16.1793,107.727 23.5,106.5C 23.5,105.5 23.5,104.5 23.5,103.5C 22.5,103.5 21.5,103.5 20.5,103.5C 20.5,102.167 20.5,100.833 20.5,99.5C 24.6732,100.044 28.5065,99.377 32,97.5C 32.49,98.7932 32.6567,100.127 32.5,101.5C 30.2495,101.181 28.2495,101.681 26.5,103C 28.7695,103.758 30.9361,103.591 33,102.5C 33.3467,96.7746 34.1801,91.1079 35.5,85.5C 35.1703,91.8682 35.5037,98.2015 36.5,104.5C 37.8108,108.495 40.4775,111.162 44.5,112.5C 46.0009,113.752 47.6675,114.752 49.5,115.5C 49.9371,117.074 50.9371,118.241 52.5,119C 55.146,119.497 57.8127,119.664 60.5,119.5C 61.8333,119.5 63.1667,119.5 64.5,119.5C 72.3159,120.492 80.3159,120.826 88.5,120.5C 82.0526,121.936 75.3859,122.603 68.5,122.5C 68.5,123.5 68.5,124.5 68.5,125.5C 63.3774,123.919 58.0441,123.252 52.5,123.5C 52.5,124.5 52.5,125.5 52.5,126.5C 63.2517,126.618 73.7517,127.618 84,129.5C 84.4828,128.552 84.6495,127.552 84.5,126.5C 89.8333,126.5 95.1667,126.5 100.5,126.5C 100.5,124.833 100.5,123.167 100.5,121.5C 111.552,122.143 122.219,121.476 132.5,119.5C 159.167,119.5 185.833,119.5 212.5,119.5C 211.737,120.268 210.737,120.768 209.5,121C 184.833,121.333 160.167,121.667 135.5,122C 136.833,122.333 138.167,122.667 139.5,123C 138.376,123.249 137.376,123.749 136.5,124.5C 136.667,124.833 136.833,125.167 137,125.5C 149.46,125.147 162.126,125.147 175,125.5C 187.167,125.333 199.333,125.167 211.5,125C 212.337,123.989 212.67,122.822 212.5,121.5C 223.172,121.667 233.839,121.5 244.5,121C 245.056,120.617 245.389,120.117 245.5,119.5C 250.438,120.392 255.438,120.726 260.5,120.5C 268.886,120.787 277.219,120.287 285.5,119C 286.056,118.617 286.389,118.117 286.5,117.5C 293.324,118.153 298.658,115.819 302.5,110.5C 306.032,109.146 309.198,107.146 312,104.5C 312.749,101.243 314.416,98.5759 317,96.5C 317.498,93.5184 317.665,90.5184 317.5,87.5C 317.663,82.453 317.329,77.453 316.5,72.5C 316.5,71.5 316.5,70.5 316.5,69.5C 317.871,71.1696 319.371,71.8363 321,71.5C 321.66,74.0472 321.493,76.5472 320.5,79C 321.37,81.2772 322.037,83.6106 322.5,86C 322.028,88.9735 321.195,88.8068 320,85.5C 319.348,90.8655 318.515,96.1988 317.5,101.5C 314.508,104.122 311.508,106.789 308.5,109.5C 310.173,111.086 312.173,111.753 314.5,111.5C 314.167,113.5 313.833,115.5 313.5,117.5C 317.169,118.303 319.836,117.136 321.5,114C 322.959,114.355 324.293,114.189 325.5,113.5C 325.5,114.167 325.5,114.833 325.5,115.5C 325.5,116.5 325.5,117.5 325.5,118.5C 335.015,118.827 344.348,118.494 353.5,117.5C 354.468,115.393 354.802,113.059 354.5,110.5C 355.36,107.368 356.36,104.368 357.5,101.5C 359.414,98.3157 360.08,94.649 359.5,90.5C 361.782,86.181 363.615,81.5143 365,76.5C 366.053,68.8487 366.887,61.182 367.5,53.5 Z"/></g>
<g><path style="opacity:1" fill="#d14345" d="M 112.5,109.5 C 112.205,111.423 111.372,113.09 110,114.5C 109.667,114.167 109.333,113.833 109,113.5C 102.736,117.252 95.9025,119.585 88.5,120.5C 80.3159,120.826 72.3159,120.492 64.5,119.5C 81.628,121.142 97.628,117.808 112.5,109.5 Z"/></g>
<g><path style="opacity:1" fill="#feedef" d="M 137.5,104.5 C 137.5,108.5 137.5,112.5 137.5,116.5C 139.167,116.5 140.833,116.5 142.5,116.5C 143.167,112.5 143.833,112.5 144.5,116.5C 164.5,116.5 184.5,116.5 204.5,116.5C 204.18,113.102 204.513,109.768 205.5,106.5C 206.489,110.107 206.823,113.774 206.5,117.5C 182.5,117.5 158.5,117.5 134.5,117.5C 134.882,112.908 135.882,108.575 137.5,104.5 Z"/></g>
<g><path style="opacity:1" fill="#cc3e47" d="M 302.5,110.5 C 298.658,115.819 293.324,118.153 286.5,117.5C 292.019,115.744 297.353,113.41 302.5,110.5 Z"/></g>
<g><path style="opacity:1" fill="#ca3035" d="M 228.5,101.5 C 230.295,104.404 232.128,107.404 234,110.5C 241.446,117.371 250.279,120.371 260.5,119.5C 260.5,119.833 260.5,120.167 260.5,120.5C 255.438,120.726 250.438,120.392 245.5,119.5C 239.665,116.677 233.998,113.677 228.5,110.5C 229.541,107.542 229.541,104.542 228.5,101.5 Z"/></g>
<g><path style="opacity:1" fill="#c21d25" d="M 331.5,90.5 C 329.45,98.7484 327.784,107.082 326.5,115.5C 326.167,115.5 325.833,115.5 325.5,115.5C 325.5,114.833 325.5,114.167 325.5,113.5C 326.882,106.92 327.716,100.253 328,93.5C 329.359,92.635 330.526,91.635 331.5,90.5 Z"/></g>
<g><path style="opacity:1" fill="#ffc0c1" d="M 166.5,98.5 C 182.167,98.5 197.833,98.5 213.5,98.5C 214.833,99.5 214.833,100.5 213.5,101.5C 198.027,99.8383 182.36,98.8383 166.5,98.5 Z"/></g>
<g><path style="opacity:1" fill="#cf4449" d="M 359.5,90.5 C 360.08,94.649 359.414,98.3157 357.5,101.5C 357.5,99.5 357.5,97.5 357.5,95.5C 358.167,93.8333 358.833,92.1667 359.5,90.5 Z"/></g>
<g><path style="opacity:1" fill="#c63b3e" d="M 317.5,87.5 C 317.665,90.5184 317.498,93.5184 317,96.5C 314.416,98.5759 312.749,101.243 312,104.5C 309.198,107.146 306.032,109.146 302.5,110.5C 310.278,104.603 315.278,96.936 317.5,87.5 Z"/></g>
<g><path style="opacity:1" fill="#a3252a" d="M 167.5,93.5 C 167.5,94.8333 167.5,96.1667 167.5,97.5C 183.009,97.1705 198.342,97.5038 213.5,98.5C 197.833,98.5 182.167,98.5 166.5,98.5C 166.216,96.5853 166.549,94.9187 167.5,93.5 Z"/></g>
<g><path style="opacity:1" fill="#cd2a2c" d="M 167.5,92.5 C 167.833,92.5 168.167,92.5 168.5,92.5C 168.33,93.8221 168.663,94.9887 169.5,96C 184.366,96.8091 199.199,96.6424 214,95.5C 215.861,96.6087 216.695,98.2753 216.5,100.5C 216.308,102.577 215.808,104.577 215,106.5C 214.329,107.252 213.496,107.586 212.5,107.5C 212.517,105.435 212.85,103.435 213.5,101.5C 214.833,100.5 214.833,99.5 213.5,98.5C 198.342,97.5038 183.009,97.1705 167.5,97.5C 167.5,96.1667 167.5,94.8333 167.5,93.5C 167.5,93.1667 167.5,92.8333 167.5,92.5 Z"/></g>
<g><path style="opacity:1" fill="#fedbdd" d="M 68.5,96.5 C 68.5,96.8333 68.5,97.1667 68.5,97.5C 66.9826,97.4894 65.8159,96.8228 65,95.5C 64.8184,92.7737 64.3184,90.1071 63.5,87.5C 55.249,87.6749 46.9157,87.6749 38.5,87.5C 38.7831,91.7739 38.7831,95.9406 38.5,100C 39.9837,103.13 41.3171,106.297 42.5,109.5C 40.2918,108.106 38.7918,106.106 38,103.5C 37.5006,97.8431 37.3339,92.1764 37.5,86.5C 46.8333,86.5 56.1667,86.5 65.5,86.5C 65.3359,89.1873 65.5026,91.854 66,94.5C 66.7083,95.3805 67.5416,96.0472 68.5,96.5 Z"/></g>
<g><path style="opacity:1" fill="#fde5e1" d="M 334.5,79.5 C 333.314,84.5041 333.314,89.5041 334.5,94.5C 334.176,96.5689 333.342,96.9023 332,95.5C 331.989,100.991 330.823,106.158 328.5,111C 329.233,112.766 329.567,114.599 329.5,116.5C 337.5,116.5 345.5,116.5 353.5,116.5C 353.205,114.265 353.539,112.265 354.5,110.5C 354.802,113.059 354.468,115.393 353.5,117.5C 344.105,118.138 335.105,117.471 326.5,115.5C 327.784,107.082 329.45,98.7484 331.5,90.5C 331.5,90.1667 331.5,89.8333 331.5,89.5C 332.135,86.0689 333.135,82.7356 334.5,79.5 Z"/></g>
<g><path style="opacity:1" fill="#d1616c" d="M 229.5,86.5 C 238.318,85.5067 247.318,85.1734 256.5,85.5C 256.833,85.5 257.167,85.5 257.5,85.5C 257.5,87.8333 257.5,90.1667 257.5,92.5C 256.539,90.7354 256.205,88.7354 256.5,86.5C 247.5,86.5 238.5,86.5 229.5,86.5 Z"/></g>
<g><path style="opacity:1" fill="#ba2027" d="M 335.5,69.5 C 335.167,72.8333 334.833,76.1667 334.5,79.5C 333.135,82.7356 332.135,86.0689 331.5,89.5C 331.588,83.0697 332.421,76.7364 334,70.5C 334.383,69.944 334.883,69.6107 335.5,69.5 Z"/></g>
<g><path style="opacity:1" fill="#c11521" d="M 384.5,109.5 C 384.5,110.833 384.5,112.167 384.5,113.5C 393.833,113.5 403.167,113.5 412.5,113.5C 412.5,119.5 412.5,125.5 412.5,131.5C 274.833,131.5 137.167,131.5 -0.5,131.5C -0.5,125.5 -0.5,119.5 -0.5,113.5C 7.83333,113.5 16.1667,113.5 24.5,113.5C 16.6841,114.492 8.68413,114.826 0.5,114.5C 0.5,119.833 0.5,125.167 0.5,130.5C 137.5,130.5 274.5,130.5 411.5,130.5C 411.5,125.167 411.5,119.833 411.5,114.5C 402.161,114.666 392.827,114.5 383.5,114C 381.957,111.955 382.29,110.455 384.5,109.5 Z"/></g>
<g><path style="opacity:1" fill="#d15350" d="M 286.5,117.5 C 286.389,118.117 286.056,118.617 285.5,119C 277.219,120.287 268.886,120.787 260.5,120.5C 260.5,120.167 260.5,119.833 260.5,119.5C 269.257,119.809 277.924,119.142 286.5,117.5 Z"/></g>
<g><path style="opacity:1" fill="#c83940" d="M 49.5,115.5 C 53.1899,116.998 56.8566,118.331 60.5,119.5C 57.8127,119.664 55.146,119.497 52.5,119C 50.9371,118.241 49.9371,117.074 49.5,115.5 Z"/></g>
<g><path style="opacity:1" fill="#fa7c85" d="M 325.5,115.5 C 325.833,115.5 326.167,115.5 326.5,115.5C 335.105,117.471 344.105,118.138 353.5,117.5C 344.348,118.494 335.015,118.827 325.5,118.5C 325.5,117.5 325.5,116.5 325.5,115.5 Z"/></g>
</svg>
